ISO-10303-21;
HEADER;
/* Generated by software containing ST-Developer
 * from STEP Tools, Inc. (www.steptools.com) 
 */
/* OPTION: using custom schema-name function */

FILE_DESCRIPTION(
/* description */ (''),
/* implementation_level */ '2;1');

FILE_NAME(
/* name */ 'baliza.stp',
/* time_stamp */ '2026-06-07T23:40:30+02:00',
/* author */ (''),
/* organization */ (''),
/* preprocessor_version */ 'ST-DEVELOPER v19.3',
/* originating_system */ 'SIEMENS PLM Software NX2212.5000',
/* authorisation */ '');

FILE_SCHEMA (('AUTOMOTIVE_DESIGN { 1 0 10303 214 3 1 1 1 }'));
ENDSEC;

DATA;
#10=SHAPE_REPRESENTATION_RELATIONSHIP('None',
'relationship between baliza-None and baliza-None',#22,#11);
#11=ADVANCED_BREP_SHAPE_REPRESENTATION('baliza-None',(#32),#93);
#12=SHAPE_DEFINITION_REPRESENTATION(#13,#22);
#13=PRODUCT_DEFINITION_SHAPE('','',#14);
#14=PRODUCT_DEFINITION(' ','',#16,#15);
#15=PRODUCT_DEFINITION_CONTEXT('part definition',#21,'design');
#16=PRODUCT_DEFINITION_FORMATION_WITH_SPECIFIED_SOURCE(' ',' ',#18,
 .NOT_KNOWN.);
#17=PRODUCT_RELATED_PRODUCT_CATEGORY('part','',(#18));
#18=PRODUCT('baliza','baliza',' ',(#19));
#19=PRODUCT_CONTEXT(' ',#21,'mechanical');
#20=APPLICATION_PROTOCOL_DEFINITION('international standard',
'automotive_design',2010,#21);
#21=APPLICATION_CONTEXT(
'core data for automotive mechanical design processes');
#22=SHAPE_REPRESENTATION('baliza-None',(#50),#93);
#23=PRESENTATION_LAYER_ASSIGNMENT('1','Layer 1',(#32));
#24=STYLED_ITEM('',(#25),#32);
#25=PRESENTATION_STYLE_ASSIGNMENT((#26));
#26=SURFACE_STYLE_USAGE(.BOTH.,#27);
#27=SURFACE_SIDE_STYLE('',(#28));
#28=SURFACE_STYLE_FILL_AREA(#29);
#29=FILL_AREA_STYLE('',(#30));
#30=FILL_AREA_STYLE_COLOUR('',#31);
#31=COLOUR_RGB('medium steel',0.611764705882353,0.658823529411765,0.670588235294118);
#32=MANIFOLD_SOLID_BREP('',#33);
#33=CLOSED_SHELL('',(#36,#37));
#34=PLANE('',#52);
#35=FACE_OUTER_BOUND('',#43,.T.);
#36=ADVANCED_FACE('',(#40,#41),#38,.T.);
#37=ADVANCED_FACE('',(#35),#34,.T.);
#38=(
BOUNDED_SURFACE()
B_SPLINE_SURFACE(3,3,((#63,#64,#65,#66,#67,#68,#69),(#70,#71,#72,#73,#74,
#75,#76),(#77,#78,#79,#80,#81,#82,#83),(#84,#85,#86,#87,#88,#89,#90)),
 .UNSPECIFIED.,.F.,.T.,.F.)
B_SPLINE_SURFACE_WITH_KNOTS((4,4),(1,3,3,3,1),(0.,1.),(-0.5,0.,0.5,1.,1.5),
 .UNSPECIFIED.)
GEOMETRIC_REPRESENTATION_ITEM()
RATIONAL_B_SPLINE_SURFACE(((1.,0.333333333333333,0.333333333333333,1.,0.333333333333333,
0.333333333333333,1.),(0.856618825024668,0.285539608341556,0.285539608341556,
0.856618825024668,0.285539608341556,0.285539608341556,0.856618825024668),
(0.856618825024668,0.285539608341556,0.285539608341556,0.856618825024668,
0.285539608341556,0.285539608341556,0.856618825024668),(1.,0.333333333333333,
0.333333333333333,1.,0.333333333333333,0.333333333333333,1.)))
REPRESENTATION_ITEM('')
SURFACE()
);
#39=VERTEX_LOOP('',#47);
#40=FACE_BOUND('',#42,.T.);
#41=FACE_BOUND('',#39,.T.);
#42=EDGE_LOOP('',(#44));
#43=EDGE_LOOP('',(#45));
#44=ORIENTED_EDGE('',*,*,#48,.T.);
#45=ORIENTED_EDGE('',*,*,#48,.F.);
#46=VERTEX_POINT('',#61);
#47=VERTEX_POINT('',#62);
#48=EDGE_CURVE('',#46,#46,#49,.T.);
#49=CIRCLE('',#51,53.);
#50=AXIS2_PLACEMENT_3D('',#59,#53,#54);
#51=AXIS2_PLACEMENT_3D('',#60,#55,#56);
#52=AXIS2_PLACEMENT_3D('',#91,#57,#58);
#53=DIRECTION('',(0.,0.,1.));
#54=DIRECTION('',(1.,0.,0.));
#55=DIRECTION('',(0.,0.,-1.));
#56=DIRECTION('',(-1.,0.,0.));
#57=DIRECTION('',(0.,0.,1.));
#58=DIRECTION('',(1.,0.,0.));
#59=CARTESIAN_POINT('',(0.,0.,0.));
#60=CARTESIAN_POINT('',(0.,0.,70.));
#61=CARTESIAN_POINT('',(-53.,0.,70.));
#62=CARTESIAN_POINT('',(0.,0.,0.));
#63=CARTESIAN_POINT('',(-6.93889390390723E-15,0.,1.38777878078145E-14));
#64=CARTESIAN_POINT('',(-6.93889390390723E-15,1.38777878078145E-14,1.38777878078145E-14));
#65=CARTESIAN_POINT('',(6.93889390390723E-15,1.38777878078145E-14,1.38777878078145E-14));
#66=CARTESIAN_POINT('',(6.93889390390723E-15,0.,1.38777878078145E-14));
#67=CARTESIAN_POINT('',(6.93889390390723E-15,-1.38777878078145E-14,1.38777878078145E-14));
#68=CARTESIAN_POINT('',(-6.93889390390723E-15,-1.38777878078145E-14,1.38777878078145E-14));
#69=CARTESIAN_POINT('',(-6.93889390390723E-15,0.,1.38777878078145E-14));
#70=CARTESIAN_POINT('',(-33.0649845464054,0.,8.60238011921157));
#71=CARTESIAN_POINT('',(-33.0649845464054,66.1299690928107,8.60238011921157));
#72=CARTESIAN_POINT('',(33.0649845464054,66.1299690928107,8.60238011921157));
#73=CARTESIAN_POINT('',(33.0649845464054,0.,8.60238011921157));
#74=CARTESIAN_POINT('',(33.0649845464054,-66.1299690928107,8.60238011921157));
#75=CARTESIAN_POINT('',(-33.0649845464054,-66.1299690928107,8.60238011921157));
#76=CARTESIAN_POINT('',(-33.0649845464054,0.,8.60238011921157));
#77=CARTESIAN_POINT('',(-53.6887043977149,0.,35.841255394526));
#78=CARTESIAN_POINT('',(-53.6887043977149,107.37740879543,35.841255394526));
#79=CARTESIAN_POINT('',(53.6887043977149,107.37740879543,35.841255394526));
#80=CARTESIAN_POINT('',(53.6887043977149,0.,35.841255394526));
#81=CARTESIAN_POINT('',(53.6887043977149,-107.37740879543,35.841255394526));
#82=CARTESIAN_POINT('',(-53.6887043977149,-107.37740879543,35.841255394526));
#83=CARTESIAN_POINT('',(-53.6887043977149,0.,35.841255394526));
#84=CARTESIAN_POINT('',(-53.,0.,70.));
#85=CARTESIAN_POINT('',(-53.,106.,70.));
#86=CARTESIAN_POINT('',(53.,106.,70.));
#87=CARTESIAN_POINT('',(53.,0.,70.));
#88=CARTESIAN_POINT('',(53.,-106.,70.));
#89=CARTESIAN_POINT('',(-53.,-106.,70.));
#90=CARTESIAN_POINT('',(-53.,0.,70.));
#91=CARTESIAN_POINT('',(53.,0.,70.));
#92=MECHANICAL_DESIGN_GEOMETRIC_PRESENTATION_REPRESENTATION('',(#24),#93);
#93=(
GEOMETRIC_REPRESENTATION_CONTEXT(3)
GLOBAL_UNCERTAINTY_ASSIGNED_CONTEXT((#94))
GLOBAL_UNIT_ASSIGNED_CONTEXT((#100,#96,#95))
REPRESENTATION_CONTEXT('baliza','TOP_LEVEL_ASSEMBLY_PART')
);
#94=UNCERTAINTY_MEASURE_WITH_UNIT(LENGTH_MEASURE(0.0254),#100,
'DISTANCE_ACCURACY_VALUE','Maximum Tolerance applied to model');
#95=(
NAMED_UNIT(*)
SI_UNIT($,.STERADIAN.)
SOLID_ANGLE_UNIT()
);
#96=(
CONVERSION_BASED_UNIT('DEGREE',#98)
NAMED_UNIT(#97)
PLANE_ANGLE_UNIT()
);
#97=DIMENSIONAL_EXPONENTS(0.,0.,0.,0.,0.,0.,0.);
#98=PLANE_ANGLE_MEASURE_WITH_UNIT(PLANE_ANGLE_MEASURE(0.0174532925),#99);
#99=(
NAMED_UNIT(*)
PLANE_ANGLE_UNIT()
SI_UNIT($,.RADIAN.)
);
#100=(
LENGTH_UNIT()
NAMED_UNIT(*)
SI_UNIT(.MILLI.,.METRE.)
);
ENDSEC;
END-ISO-10303-21;
