ISO-10303-21;
HEADER;
/* Generated by software containing ST-Developer
 * from STEP Tools, Inc. (www.steptools.com) 
 */
/* OPTION: using custom schema-name function */

FILE_DESCRIPTION(
/* description */ (''),
/* implementation_level */ '2;1');

FILE_NAME(
/* name */ 'Utilcontenedor_1.stp',
/* time_stamp */ '2026-05-15T20:00:49+02:00',
/* author */ (''),
/* organization */ (''),
/* preprocessor_version */ 'ST-DEVELOPER v19.3',
/* originating_system */ 'SIEMENS PLM Software NX2212.5000',
/* authorisation */ '');

FILE_SCHEMA (('AUTOMOTIVE_DESIGN { 1 0 10303 214 3 1 1 1 }'));
ENDSEC;

DATA;
#10=SHAPE_REPRESENTATION_RELATIONSHIP('None',
'relationship between Utilcontenedor-None and Utilcontenedor-None',#22,
#11);
#11=ADVANCED_BREP_SHAPE_REPRESENTATION('Utilcontenedor-None',(#80,#81,#82,
#83,#84),#605);
#12=SHAPE_DEFINITION_REPRESENTATION(#13,#22);
#13=PRODUCT_DEFINITION_SHAPE('','',#14);
#14=PRODUCT_DEFINITION(' ','',#16,#15);
#15=PRODUCT_DEFINITION_CONTEXT('part definition',#21,'design');
#16=PRODUCT_DEFINITION_FORMATION_WITH_SPECIFIED_SOURCE(' ',' ',#18,
 .NOT_KNOWN.);
#17=PRODUCT_RELATED_PRODUCT_CATEGORY('part','',(#18));
#18=PRODUCT('Utilcontenedor','Utilcontenedor',' ',(#19));
#19=PRODUCT_CONTEXT(' ',#21,'mechanical');
#20=APPLICATION_PROTOCOL_DEFINITION('international standard',
'automotive_design',2010,#21);
#21=APPLICATION_CONTEXT(
'core data for automotive mechanical design processes');
#22=SHAPE_REPRESENTATION('Utilcontenedor-None',(#384),#605);
#23=CYLINDRICAL_SURFACE('',#399,7.5);
#24=CYLINDRICAL_SURFACE('',#404,7.5);
#25=CYLINDRICAL_SURFACE('',#409,7.5);
#26=CYLINDRICAL_SURFACE('',#414,7.5);
#27=FACE_BOUND('',#166,.T.);
#28=FACE_BOUND('',#167,.T.);
#29=FACE_BOUND('',#170,.T.);
#30=FACE_BOUND('',#171,.T.);
#31=FACE_BOUND('',#174,.T.);
#32=FACE_BOUND('',#175,.T.);
#33=FACE_BOUND('',#178,.T.);
#34=FACE_BOUND('',#179,.T.);
#35=CIRCLE('',#397,7.5);
#36=CIRCLE('',#398,7.5);
#37=CIRCLE('',#402,7.5);
#38=CIRCLE('',#403,7.5);
#39=CIRCLE('',#407,7.5);
#40=CIRCLE('',#408,7.5);
#41=CIRCLE('',#412,7.5);
#42=CIRCLE('',#413,7.5);
#43=PRESENTATION_LAYER_ASSIGNMENT('1','Layer 1',(#80,#81,#82,#83,#84));
#44=STYLED_ITEM('',(#49),#80);
#45=STYLED_ITEM('',(#50),#81);
#46=STYLED_ITEM('',(#51),#82);
#47=STYLED_ITEM('',(#52),#83);
#48=STYLED_ITEM('',(#53),#84);
#49=PRESENTATION_STYLE_ASSIGNMENT((#54));
#50=PRESENTATION_STYLE_ASSIGNMENT((#55));
#51=PRESENTATION_STYLE_ASSIGNMENT((#56));
#52=PRESENTATION_STYLE_ASSIGNMENT((#57));
#53=PRESENTATION_STYLE_ASSIGNMENT((#58));
#54=SURFACE_STYLE_USAGE(.BOTH.,#59);
#55=SURFACE_STYLE_USAGE(.BOTH.,#60);
#56=SURFACE_STYLE_USAGE(.BOTH.,#61);
#57=SURFACE_STYLE_USAGE(.BOTH.,#62);
#58=SURFACE_STYLE_USAGE(.BOTH.,#63);
#59=SURFACE_SIDE_STYLE('',(#64));
#60=SURFACE_SIDE_STYLE('',(#65));
#61=SURFACE_SIDE_STYLE('',(#66));
#62=SURFACE_SIDE_STYLE('',(#67));
#63=SURFACE_SIDE_STYLE('',(#68));
#64=SURFACE_STYLE_FILL_AREA(#69);
#65=SURFACE_STYLE_FILL_AREA(#70);
#66=SURFACE_STYLE_FILL_AREA(#71);
#67=SURFACE_STYLE_FILL_AREA(#72);
#68=SURFACE_STYLE_FILL_AREA(#73);
#69=FILL_AREA_STYLE('',(#74));
#70=FILL_AREA_STYLE('',(#75));
#71=FILL_AREA_STYLE('',(#76));
#72=FILL_AREA_STYLE('',(#77));
#73=FILL_AREA_STYLE('',(#78));
#74=FILL_AREA_STYLE_COLOUR('',#79);
#75=FILL_AREA_STYLE_COLOUR('',#79);
#76=FILL_AREA_STYLE_COLOUR('',#79);
#77=FILL_AREA_STYLE_COLOUR('',#79);
#78=FILL_AREA_STYLE_COLOUR('',#79);
#79=COLOUR_RGB('medium steel',0.611764705882353,0.658823529411765,0.670588235294118);
#80=MANIFOLD_SOLID_BREP('',#85);
#81=MANIFOLD_SOLID_BREP('',#86);
#82=MANIFOLD_SOLID_BREP('',#87);
#83=MANIFOLD_SOLID_BREP('',#88);
#84=MANIFOLD_SOLID_BREP('',#89);
#85=CLOSED_SHELL('',(#90,#91,#92,#93,#94,#95,#96,#97,#98,#99,#100,#101));
#86=CLOSED_SHELL('',(#102,#103,#104));
#87=CLOSED_SHELL('',(#105,#106,#107));
#88=CLOSED_SHELL('',(#108,#109,#110));
#89=CLOSED_SHELL('',(#111,#112,#113));
#90=ADVANCED_FACE('',(#134),#114,.F.);
#91=ADVANCED_FACE('',(#135),#115,.F.);
#92=ADVANCED_FACE('',(#136),#116,.F.);
#93=ADVANCED_FACE('',(#137),#117,.F.);
#94=ADVANCED_FACE('',(#138),#118,.T.);
#95=ADVANCED_FACE('',(#139),#119,.F.);
#96=ADVANCED_FACE('',(#140),#120,.F.);
#97=ADVANCED_FACE('',(#141),#121,.T.);
#98=ADVANCED_FACE('',(#142),#122,.F.);
#99=ADVANCED_FACE('',(#143),#123,.T.);
#100=ADVANCED_FACE('',(#144),#124,.T.);
#101=ADVANCED_FACE('',(#145),#125,.T.);
#102=ADVANCED_FACE('',(#27,#28),#23,.T.);
#103=ADVANCED_FACE('',(#146),#126,.T.);
#104=ADVANCED_FACE('',(#147),#127,.F.);
#105=ADVANCED_FACE('',(#29,#30),#24,.T.);
#106=ADVANCED_FACE('',(#148),#128,.F.);
#107=ADVANCED_FACE('',(#149),#129,.T.);
#108=ADVANCED_FACE('',(#31,#32),#25,.T.);
#109=ADVANCED_FACE('',(#150),#130,.T.);
#110=ADVANCED_FACE('',(#151),#131,.F.);
#111=ADVANCED_FACE('',(#33,#34),#26,.T.);
#112=ADVANCED_FACE('',(#152),#132,.T.);
#113=ADVANCED_FACE('',(#153),#133,.F.);
#114=PLANE('',#385);
#115=PLANE('',#386);
#116=PLANE('',#387);
#117=PLANE('',#388);
#118=PLANE('',#389);
#119=PLANE('',#390);
#120=PLANE('',#391);
#121=PLANE('',#392);
#122=PLANE('',#393);
#123=PLANE('',#394);
#124=PLANE('',#395);
#125=PLANE('',#396);
#126=PLANE('',#400);
#127=PLANE('',#401);
#128=PLANE('',#405);
#129=PLANE('',#406);
#130=PLANE('',#410);
#131=PLANE('',#411);
#132=PLANE('',#415);
#133=PLANE('',#416);
#134=FACE_OUTER_BOUND('',#154,.T.);
#135=FACE_OUTER_BOUND('',#155,.T.);
#136=FACE_OUTER_BOUND('',#156,.T.);
#137=FACE_OUTER_BOUND('',#157,.T.);
#138=FACE_OUTER_BOUND('',#158,.T.);
#139=FACE_OUTER_BOUND('',#159,.T.);
#140=FACE_OUTER_BOUND('',#160,.T.);
#141=FACE_OUTER_BOUND('',#161,.T.);
#142=FACE_OUTER_BOUND('',#162,.T.);
#143=FACE_OUTER_BOUND('',#163,.T.);
#144=FACE_OUTER_BOUND('',#164,.T.);
#145=FACE_OUTER_BOUND('',#165,.T.);
#146=FACE_OUTER_BOUND('',#168,.T.);
#147=FACE_OUTER_BOUND('',#169,.T.);
#148=FACE_OUTER_BOUND('',#172,.T.);
#149=FACE_OUTER_BOUND('',#173,.T.);
#150=FACE_OUTER_BOUND('',#176,.T.);
#151=FACE_OUTER_BOUND('',#177,.T.);
#152=FACE_OUTER_BOUND('',#180,.T.);
#153=FACE_OUTER_BOUND('',#181,.T.);
#154=EDGE_LOOP('',(#182,#183,#184,#185));
#155=EDGE_LOOP('',(#186,#187,#188,#189,#190,#191));
#156=EDGE_LOOP('',(#192,#193,#194,#195));
#157=EDGE_LOOP('',(#196,#197,#198,#199));
#158=EDGE_LOOP('',(#200,#201,#202,#203));
#159=EDGE_LOOP('',(#204,#205,#206,#207,#208,#209));
#160=EDGE_LOOP('',(#210,#211,#212,#213,#214,#215,#216,#217));
#161=EDGE_LOOP('',(#218,#219,#220,#221));
#162=EDGE_LOOP('',(#222,#223,#224,#225));
#163=EDGE_LOOP('',(#226,#227,#228,#229,#230,#231,#232,#233));
#164=EDGE_LOOP('',(#234,#235,#236,#237));
#165=EDGE_LOOP('',(#238,#239,#240,#241));
#166=EDGE_LOOP('',(#242));
#167=EDGE_LOOP('',(#243));
#168=EDGE_LOOP('',(#244));
#169=EDGE_LOOP('',(#245));
#170=EDGE_LOOP('',(#246));
#171=EDGE_LOOP('',(#247));
#172=EDGE_LOOP('',(#248));
#173=EDGE_LOOP('',(#249));
#174=EDGE_LOOP('',(#250));
#175=EDGE_LOOP('',(#251));
#176=EDGE_LOOP('',(#252));
#177=EDGE_LOOP('',(#253));
#178=EDGE_LOOP('',(#254));
#179=EDGE_LOOP('',(#255));
#180=EDGE_LOOP('',(#256));
#181=EDGE_LOOP('',(#257));
#182=ORIENTED_EDGE('',*,*,#286,.F.);
#183=ORIENTED_EDGE('',*,*,#287,.F.);
#184=ORIENTED_EDGE('',*,*,#288,.T.);
#185=ORIENTED_EDGE('',*,*,#289,.T.);
#186=ORIENTED_EDGE('',*,*,#290,.F.);
#187=ORIENTED_EDGE('',*,*,#291,.F.);
#188=ORIENTED_EDGE('',*,*,#292,.T.);
#189=ORIENTED_EDGE('',*,*,#293,.T.);
#190=ORIENTED_EDGE('',*,*,#288,.F.);
#191=ORIENTED_EDGE('',*,*,#294,.F.);
#192=ORIENTED_EDGE('',*,*,#295,.F.);
#193=ORIENTED_EDGE('',*,*,#296,.T.);
#194=ORIENTED_EDGE('',*,*,#297,.F.);
#195=ORIENTED_EDGE('',*,*,#298,.T.);
#196=ORIENTED_EDGE('',*,*,#299,.F.);
#197=ORIENTED_EDGE('',*,*,#300,.T.);
#198=ORIENTED_EDGE('',*,*,#301,.T.);
#199=ORIENTED_EDGE('',*,*,#302,.T.);
#200=ORIENTED_EDGE('',*,*,#303,.F.);
#201=ORIENTED_EDGE('',*,*,#304,.T.);
#202=ORIENTED_EDGE('',*,*,#305,.T.);
#203=ORIENTED_EDGE('',*,*,#296,.F.);
#204=ORIENTED_EDGE('',*,*,#306,.F.);
#205=ORIENTED_EDGE('',*,*,#307,.T.);
#206=ORIENTED_EDGE('',*,*,#286,.T.);
#207=ORIENTED_EDGE('',*,*,#308,.T.);
#208=ORIENTED_EDGE('',*,*,#309,.F.);
#209=ORIENTED_EDGE('',*,*,#304,.F.);
#210=ORIENTED_EDGE('',*,*,#310,.F.);
#211=ORIENTED_EDGE('',*,*,#297,.T.);
#212=ORIENTED_EDGE('',*,*,#305,.F.);
#213=ORIENTED_EDGE('',*,*,#309,.T.);
#214=ORIENTED_EDGE('',*,*,#311,.T.);
#215=ORIENTED_EDGE('',*,*,#292,.F.);
#216=ORIENTED_EDGE('',*,*,#312,.F.);
#217=ORIENTED_EDGE('',*,*,#301,.F.);
#218=ORIENTED_EDGE('',*,*,#313,.F.);
#219=ORIENTED_EDGE('',*,*,#302,.F.);
#220=ORIENTED_EDGE('',*,*,#312,.T.);
#221=ORIENTED_EDGE('',*,*,#291,.T.);
#222=ORIENTED_EDGE('',*,*,#289,.F.);
#223=ORIENTED_EDGE('',*,*,#293,.F.);
#224=ORIENTED_EDGE('',*,*,#311,.F.);
#225=ORIENTED_EDGE('',*,*,#308,.F.);
#226=ORIENTED_EDGE('',*,*,#287,.T.);
#227=ORIENTED_EDGE('',*,*,#307,.F.);
#228=ORIENTED_EDGE('',*,*,#314,.F.);
#229=ORIENTED_EDGE('',*,*,#298,.F.);
#230=ORIENTED_EDGE('',*,*,#310,.T.);
#231=ORIENTED_EDGE('',*,*,#300,.F.);
#232=ORIENTED_EDGE('',*,*,#315,.F.);
#233=ORIENTED_EDGE('',*,*,#294,.T.);
#234=ORIENTED_EDGE('',*,*,#315,.T.);
#235=ORIENTED_EDGE('',*,*,#299,.T.);
#236=ORIENTED_EDGE('',*,*,#313,.T.);
#237=ORIENTED_EDGE('',*,*,#290,.T.);
#238=ORIENTED_EDGE('',*,*,#314,.T.);
#239=ORIENTED_EDGE('',*,*,#306,.T.);
#240=ORIENTED_EDGE('',*,*,#303,.T.);
#241=ORIENTED_EDGE('',*,*,#295,.T.);
#242=ORIENTED_EDGE('',*,*,#316,.F.);
#243=ORIENTED_EDGE('',*,*,#317,.T.);
#244=ORIENTED_EDGE('',*,*,#316,.T.);
#245=ORIENTED_EDGE('',*,*,#317,.F.);
#246=ORIENTED_EDGE('',*,*,#318,.T.);
#247=ORIENTED_EDGE('',*,*,#319,.F.);
#248=ORIENTED_EDGE('',*,*,#318,.F.);
#249=ORIENTED_EDGE('',*,*,#319,.T.);
#250=ORIENTED_EDGE('',*,*,#320,.F.);
#251=ORIENTED_EDGE('',*,*,#321,.T.);
#252=ORIENTED_EDGE('',*,*,#320,.T.);
#253=ORIENTED_EDGE('',*,*,#321,.F.);
#254=ORIENTED_EDGE('',*,*,#322,.F.);
#255=ORIENTED_EDGE('',*,*,#323,.T.);
#256=ORIENTED_EDGE('',*,*,#322,.T.);
#257=ORIENTED_EDGE('',*,*,#323,.F.);
#258=VERTEX_POINT('',#515);
#259=VERTEX_POINT('',#516);
#260=VERTEX_POINT('',#518);
#261=VERTEX_POINT('',#520);
#262=VERTEX_POINT('',#524);
#263=VERTEX_POINT('',#525);
#264=VERTEX_POINT('',#527);
#265=VERTEX_POINT('',#529);
#266=VERTEX_POINT('',#534);
#267=VERTEX_POINT('',#535);
#268=VERTEX_POINT('',#537);
#269=VERTEX_POINT('',#539);
#270=VERTEX_POINT('',#543);
#271=VERTEX_POINT('',#544);
#272=VERTEX_POINT('',#546);
#273=VERTEX_POINT('',#548);
#274=VERTEX_POINT('',#552);
#275=VERTEX_POINT('',#554);
#276=VERTEX_POINT('',#558);
#277=VERTEX_POINT('',#561);
#278=VERTEX_POINT('',#577);
#279=VERTEX_POINT('',#579);
#280=VERTEX_POINT('',#584);
#281=VERTEX_POINT('',#586);
#282=VERTEX_POINT('',#591);
#283=VERTEX_POINT('',#593);
#284=VERTEX_POINT('',#598);
#285=VERTEX_POINT('',#600);
#286=EDGE_CURVE('',#258,#259,#324,.T.);
#287=EDGE_CURVE('',#260,#258,#325,.T.);
#288=EDGE_CURVE('',#260,#261,#326,.T.);
#289=EDGE_CURVE('',#261,#259,#327,.T.);
#290=EDGE_CURVE('',#262,#263,#328,.T.);
#291=EDGE_CURVE('',#264,#262,#329,.T.);
#292=EDGE_CURVE('',#264,#265,#330,.T.);
#293=EDGE_CURVE('',#265,#261,#331,.T.);
#294=EDGE_CURVE('',#263,#260,#332,.T.);
#295=EDGE_CURVE('',#266,#267,#333,.T.);
#296=EDGE_CURVE('',#266,#268,#334,.T.);
#297=EDGE_CURVE('',#269,#268,#335,.T.);
#298=EDGE_CURVE('',#269,#267,#336,.T.);
#299=EDGE_CURVE('',#270,#271,#337,.T.);
#300=EDGE_CURVE('',#270,#272,#338,.T.);
#301=EDGE_CURVE('',#272,#273,#339,.T.);
#302=EDGE_CURVE('',#273,#271,#340,.T.);
#303=EDGE_CURVE('',#274,#266,#341,.T.);
#304=EDGE_CURVE('',#274,#275,#342,.T.);
#305=EDGE_CURVE('',#275,#268,#343,.T.);
#306=EDGE_CURVE('',#276,#274,#344,.T.);
#307=EDGE_CURVE('',#276,#258,#345,.T.);
#308=EDGE_CURVE('',#259,#277,#346,.T.);
#309=EDGE_CURVE('',#275,#277,#347,.T.);
#310=EDGE_CURVE('',#269,#272,#348,.T.);
#311=EDGE_CURVE('',#277,#265,#349,.T.);
#312=EDGE_CURVE('',#273,#264,#350,.T.);
#313=EDGE_CURVE('',#271,#262,#351,.T.);
#314=EDGE_CURVE('',#267,#276,#352,.T.);
#315=EDGE_CURVE('',#263,#270,#353,.T.);
#316=EDGE_CURVE('',#278,#278,#35,.T.);
#317=EDGE_CURVE('',#279,#279,#36,.T.);
#318=EDGE_CURVE('',#280,#280,#37,.T.);
#319=EDGE_CURVE('',#281,#281,#38,.T.);
#320=EDGE_CURVE('',#282,#282,#39,.T.);
#321=EDGE_CURVE('',#283,#283,#40,.T.);
#322=EDGE_CURVE('',#284,#284,#41,.T.);
#323=EDGE_CURVE('',#285,#285,#42,.T.);
#324=LINE('',#514,#354);
#325=LINE('',#517,#355);
#326=LINE('',#519,#356);
#327=LINE('',#521,#357);
#328=LINE('',#523,#358);
#329=LINE('',#526,#359);
#330=LINE('',#528,#360);
#331=LINE('',#530,#361);
#332=LINE('',#531,#362);
#333=LINE('',#533,#363);
#334=LINE('',#536,#364);
#335=LINE('',#538,#365);
#336=LINE('',#540,#366);
#337=LINE('',#542,#367);
#338=LINE('',#545,#368);
#339=LINE('',#547,#369);
#340=LINE('',#549,#370);
#341=LINE('',#551,#371);
#342=LINE('',#553,#372);
#343=LINE('',#555,#373);
#344=LINE('',#557,#374);
#345=LINE('',#559,#375);
#346=LINE('',#560,#376);
#347=LINE('',#562,#377);
#348=LINE('',#564,#378);
#349=LINE('',#565,#379);
#350=LINE('',#566,#380);
#351=LINE('',#568,#381);
#352=LINE('',#571,#382);
#353=LINE('',#572,#383);
#354=VECTOR('',#419,1.);
#355=VECTOR('',#420,1.);
#356=VECTOR('',#421,1.);
#357=VECTOR('',#422,1.);
#358=VECTOR('',#425,1.);
#359=VECTOR('',#426,1.);
#360=VECTOR('',#427,1.);
#361=VECTOR('',#428,1.);
#362=VECTOR('',#429,1.);
#363=VECTOR('',#432,1.);
#364=VECTOR('',#433,1.);
#365=VECTOR('',#434,1.);
#366=VECTOR('',#435,1.);
#367=VECTOR('',#438,1.);
#368=VECTOR('',#439,1.);
#369=VECTOR('',#440,1.);
#370=VECTOR('',#441,1.);
#371=VECTOR('',#444,1.);
#372=VECTOR('',#445,1.);
#373=VECTOR('',#446,1.);
#374=VECTOR('',#449,1.);
#375=VECTOR('',#450,1.);
#376=VECTOR('',#451,1.);
#377=VECTOR('',#452,1.);
#378=VECTOR('',#455,1.);
#379=VECTOR('',#456,1.);
#380=VECTOR('',#457,1.);
#381=VECTOR('',#460,1.);
#382=VECTOR('',#465,1.);
#383=VECTOR('',#466,1.);
#384=AXIS2_PLACEMENT_3D('',#513,#417,#418);
#385=AXIS2_PLACEMENT_3D('',#522,#423,#424);
#386=AXIS2_PLACEMENT_3D('',#532,#430,#431);
#387=AXIS2_PLACEMENT_3D('',#541,#436,#437);
#388=AXIS2_PLACEMENT_3D('',#550,#442,#443);
#389=AXIS2_PLACEMENT_3D('',#556,#447,#448);
#390=AXIS2_PLACEMENT_3D('',#563,#453,#454);
#391=AXIS2_PLACEMENT_3D('',#567,#458,#459);
#392=AXIS2_PLACEMENT_3D('',#569,#461,#462);
#393=AXIS2_PLACEMENT_3D('',#570,#463,#464);
#394=AXIS2_PLACEMENT_3D('',#573,#467,#468);
#395=AXIS2_PLACEMENT_3D('',#574,#469,#470);
#396=AXIS2_PLACEMENT_3D('',#575,#471,#472);
#397=AXIS2_PLACEMENT_3D('',#576,#473,#474);
#398=AXIS2_PLACEMENT_3D('',#578,#475,#476);
#399=AXIS2_PLACEMENT_3D('',#580,#477,#478);
#400=AXIS2_PLACEMENT_3D('',#581,#479,#480);
#401=AXIS2_PLACEMENT_3D('',#582,#481,#482);
#402=AXIS2_PLACEMENT_3D('',#583,#483,#484);
#403=AXIS2_PLACEMENT_3D('',#585,#485,#486);
#404=AXIS2_PLACEMENT_3D('',#587,#487,#488);
#405=AXIS2_PLACEMENT_3D('',#588,#489,#490);
#406=AXIS2_PLACEMENT_3D('',#589,#491,#492);
#407=AXIS2_PLACEMENT_3D('',#590,#493,#494);
#408=AXIS2_PLACEMENT_3D('',#592,#495,#496);
#409=AXIS2_PLACEMENT_3D('',#594,#497,#498);
#410=AXIS2_PLACEMENT_3D('',#595,#499,#500);
#411=AXIS2_PLACEMENT_3D('',#596,#501,#502);
#412=AXIS2_PLACEMENT_3D('',#597,#503,#504);
#413=AXIS2_PLACEMENT_3D('',#599,#505,#506);
#414=AXIS2_PLACEMENT_3D('',#601,#507,#508);
#415=AXIS2_PLACEMENT_3D('',#602,#509,#510);
#416=AXIS2_PLACEMENT_3D('',#603,#511,#512);
#417=DIRECTION('',(0.,0.,1.));
#418=DIRECTION('',(1.,0.,0.));
#419=DIRECTION('',(-0.573576436351046,0.,-0.819152044288992));
#420=DIRECTION('',(-1.2909570053781E-15,-1.,6.45478502689052E-16));
#421=DIRECTION('',(-0.573576436351046,0.,-0.819152044288992));
#422=DIRECTION('',(-1.02798428206033E-15,-1.,5.13992141030165E-16));
#423=DIRECTION('',(0.819152044288992,-1.1368892067112E-15,-0.573576436351046));
#424=DIRECTION('',(-0.573576436351046,0.,-0.819152044288992));
#425=DIRECTION('',(-0.573576436351047,3.81639164714898E-15,-0.819152044288991));
#426=DIRECTION('',(-0.819152044288992,0.,0.573576436351046));
#427=DIRECTION('',(-0.573576436351046,0.,-0.819152044288992));
#428=DIRECTION('',(-0.819152044288992,0.,0.573576436351046));
#429=DIRECTION('',(-0.819152044288992,1.1368892067112E-15,0.573576436351046));
#430=DIRECTION('',(0.,-1.,0.));
#431=DIRECTION('',(0.,0.,-1.));
#432=DIRECTION('',(-0.573576436351047,4.16333634234434E-15,-0.819152044288991));
#433=DIRECTION('',(0.819152044288992,-2.35922392732846E-15,-0.573576436351046));
#434=DIRECTION('',(0.573576436351046,0.,0.819152044288992));
#435=DIRECTION('',(-0.819152044288992,2.35922392732846E-15,0.573576436351046));
#436=DIRECTION('',(-1.93256310300661E-15,-1.,1.35319525279118E-15));
#437=DIRECTION('',(1.,-1.93248195223816E-15,0.));
#438=DIRECTION('',(0.573576436351046,-1.38777878078145E-15,0.819152044288991));
#439=DIRECTION('',(0.819152044288992,0.,-0.573576436351046));
#440=DIRECTION('',(0.573576436351046,0.,0.819152044288992));
#441=DIRECTION('',(-0.819152044288992,0.,0.573576436351046));
#442=DIRECTION('',(0.,1.,0.));
#443=DIRECTION('',(0.,0.,1.));
#444=DIRECTION('',(2.52323414687536E-15,1.,0.));
#445=DIRECTION('',(0.819152044288992,-2.34187669256869E-15,-0.573576436351046));
#446=DIRECTION('',(3.08395284618099E-15,1.,-2.31296463463574E-15));
#447=DIRECTION('',(0.573576436351046,-1.68589848055717E-16,0.819152044288992));
#448=DIRECTION('',(0.819152044288992,0.,-0.573576436351046));
#449=DIRECTION('',(0.573576436351046,-1.38777878078145E-15,0.819152044288992));
#450=DIRECTION('',(-0.819152044288992,1.1368892067112E-15,0.573576436351046));
#451=DIRECTION('',(0.819152044288992,-2.34187669256869E-15,-0.573576436351046));
#452=DIRECTION('',(-0.573576436351046,0.,-0.819152044288992));
#453=DIRECTION('',(1.91835308019039E-15,1.,-1.34324528769712E-15));
#454=DIRECTION('',(-1.,1.91860416443035E-15,0.));
#455=DIRECTION('',(3.22739251344522E-15,1.,-2.58191401075618E-15));
#456=DIRECTION('',(3.08395284618099E-15,1.,-2.31296463463574E-15));
#457=DIRECTION('',(3.08395284618099E-15,1.,-2.31296463463574E-15));
#458=DIRECTION('',(-0.819152044288992,3.85288829098038E-15,0.573576436351046));
#459=DIRECTION('',(0.573576436351046,0.,0.819152044288992));
#460=DIRECTION('',(1.26161707343768E-15,1.,0.));
#461=DIRECTION('',(0.573576436351046,-1.68589848055717E-16,0.819152044288992));
#462=DIRECTION('',(0.819152044288992,0.,-0.573576436351046));
#463=DIRECTION('',(0.573576436351046,-1.68589848055717E-16,0.819152044288992));
#464=DIRECTION('',(0.819152044288992,0.,-0.573576436351046));
#465=DIRECTION('',(-1.26161707343766E-15,-1.,0.));
#466=DIRECTION('',(-1.26161707343767E-15,-1.,0.));
#467=DIRECTION('',(0.573576436351046,-2.11717483604856E-16,0.819152044288992));
#468=DIRECTION('',(0.819152044288992,0.,-0.573576436351046));
#469=DIRECTION('',(-0.819152044288991,1.03345620481636E-15,0.573576436351046));
#470=DIRECTION('',(0.573576436351046,0.,0.819152044288991));
#471=DIRECTION('',(-0.819152044288992,1.03345620481636E-15,0.573576436351046));
#472=DIRECTION('',(0.573576436351046,0.,0.819152044288992));
#473=DIRECTION('',(0.,0.,1.));
#474=DIRECTION('',(1.,0.,0.));
#475=DIRECTION('',(0.,0.,1.));
#476=DIRECTION('',(1.,0.,0.));
#477=DIRECTION('',(0.,0.,-1.));
#478=DIRECTION('',(-1.,0.,0.));
#479=DIRECTION('',(0.,0.,1.));
#480=DIRECTION('',(1.,0.,0.));
#481=DIRECTION('',(0.,0.,1.));
#482=DIRECTION('',(1.,0.,0.));
#483=DIRECTION('',(0.,0.,-1.));
#484=DIRECTION('',(1.,2.31296463463574E-16,0.));
#485=DIRECTION('',(0.,0.,-1.));
#486=DIRECTION('',(1.,2.31296463463574E-16,0.));
#487=DIRECTION('',(0.,0.,-1.));
#488=DIRECTION('',(-1.,0.,0.));
#489=DIRECTION('',(0.,0.,-1.));
#490=DIRECTION('',(-1.,0.,0.));
#491=DIRECTION('',(0.,0.,-1.));
#492=DIRECTION('',(-1.,0.,0.));
#493=DIRECTION('',(0.,0.,1.));
#494=DIRECTION('',(0.999999999999999,0.,0.));
#495=DIRECTION('',(0.,0.,1.));
#496=DIRECTION('',(0.999999999999999,0.,0.));
#497=DIRECTION('',(0.,0.,-1.));
#498=DIRECTION('',(-0.999999999999999,0.,0.));
#499=DIRECTION('',(0.,0.,1.));
#500=DIRECTION('',(1.,0.,0.));
#501=DIRECTION('',(0.,0.,1.));
#502=DIRECTION('',(1.,0.,0.));
#503=DIRECTION('',(0.,0.,1.));
#504=DIRECTION('',(0.999999999999999,0.,0.));
#505=DIRECTION('',(0.,0.,1.));
#506=DIRECTION('',(0.999999999999999,0.,0.));
#507=DIRECTION('',(0.,0.,-1.));
#508=DIRECTION('',(-0.999999999999999,0.,0.));
#509=DIRECTION('',(0.,0.,1.));
#510=DIRECTION('',(1.,0.,0.));
#511=DIRECTION('',(0.,0.,1.));
#512=DIRECTION('',(1.,0.,0.));
#513=CARTESIAN_POINT('',(0.,0.,0.));
#514=CARTESIAN_POINT('',(53.3768842327329,-26.9999999999995,789.289848598879));
#515=CARTESIAN_POINT('',(41.905355505712,-27.,772.906807713099));
#516=CARTESIAN_POINT('',(36.1695911422015,-26.9999999999995,764.715287270209));
#517=CARTESIAN_POINT('',(41.905355505712,21.5,772.906807713099));
#518=CARTESIAN_POINT('',(41.905355505712,27.,772.906807713099));
#519=CARTESIAN_POINT('',(53.376884232733,27.0000000000005,789.289848598879));
#520=CARTESIAN_POINT('',(36.1695911422016,27.0000000000005,764.715287270209));
#521=CARTESIAN_POINT('',(36.1695911422016,27.0000000000005,764.715287270209));
#522=CARTESIAN_POINT('',(53.376884232733,27.0000000000005,789.289848598879));
#523=CARTESIAN_POINT('',(123.004807997297,26.9999999999999,740.53585150904));
#524=CARTESIAN_POINT('',(123.004807997297,26.9999999999998,740.53585150904));
#525=CARTESIAN_POINT('',(111.533279270276,26.9999999999999,724.15281062326));
#526=CARTESIAN_POINT('',(217.207293090531,27.,674.57456132867));
#527=CARTESIAN_POINT('',(217.207293090531,27.,674.57456132867));
#528=CARTESIAN_POINT('',(217.207293090531,27.,674.57456132867));
#529=CARTESIAN_POINT('',(200.,27.,650.));
#530=CARTESIAN_POINT('',(200.,27.,650.));
#531=CARTESIAN_POINT('',(111.533279270276,26.9999999999999,724.15281062326));
#532=CARTESIAN_POINT('',(217.207293090531,27.,674.57456132867));
#533=CARTESIAN_POINT('',(123.004807997297,-21.5000000000001,740.53585150904));
#534=CARTESIAN_POINT('',(123.004807997297,-21.4999999999999,740.53585150904));
#535=CARTESIAN_POINT('',(111.533279270276,-21.5,724.15281062326));
#536=CARTESIAN_POINT('',(53.3768842327327,-21.4999999999995,789.289848598879));
#537=CARTESIAN_POINT('',(217.207293090531,-21.5,674.57456132867));
#538=CARTESIAN_POINT('',(205.73576436351,-21.5,658.19152044289));
#539=CARTESIAN_POINT('',(205.73576436351,-21.5,658.19152044289));
#540=CARTESIAN_POINT('',(41.9053555057118,-21.4999999999995,772.906807713099));
#541=CARTESIAN_POINT('',(41.9053555057118,-21.4999999999995,772.906807713099));
#542=CARTESIAN_POINT('',(111.533279270276,21.4999999999999,724.15281062326));
#543=CARTESIAN_POINT('',(111.533279270276,21.5,724.15281062326));
#544=CARTESIAN_POINT('',(123.004807997297,21.4999999999998,740.53585150904));
#545=CARTESIAN_POINT('',(205.73576436351,21.5,658.19152044289));
#546=CARTESIAN_POINT('',(205.73576436351,21.5,658.19152044289));
#547=CARTESIAN_POINT('',(205.73576436351,21.5,658.19152044289));
#548=CARTESIAN_POINT('',(217.207293090531,21.5,674.57456132867));
#549=CARTESIAN_POINT('',(217.207293090531,21.5,674.57456132867));
#550=CARTESIAN_POINT('',(205.73576436351,21.5,658.19152044289));
#551=CARTESIAN_POINT('',(123.004807997297,-27.0000000000001,740.53585150904));
#552=CARTESIAN_POINT('',(123.004807997297,-27.0000000000001,740.53585150904));
#553=CARTESIAN_POINT('',(53.3768842327327,-26.9999999999995,789.289848598879));
#554=CARTESIAN_POINT('',(217.207293090531,-27.,674.57456132867));
#555=CARTESIAN_POINT('',(217.207293090531,-27.,674.57456132867));
#556=CARTESIAN_POINT('',(388.405380513385,4.78101242876338E-16,554.700369988103));
#557=CARTESIAN_POINT('',(111.533279270276,-27.,724.15281062326));
#558=CARTESIAN_POINT('',(111.533279270276,-27.,724.15281062326));
#559=CARTESIAN_POINT('',(111.533279270276,-27.,724.15281062326));
#560=CARTESIAN_POINT('',(36.1695911422014,-26.9999999999995,764.715287270209));
#561=CARTESIAN_POINT('',(200.,-27.,650.));
#562=CARTESIAN_POINT('',(217.207293090531,-27.,674.57456132867));
#563=CARTESIAN_POINT('',(53.3768842327327,-26.9999999999995,789.289848598879));
#564=CARTESIAN_POINT('',(205.73576436351,-21.5,658.19152044289));
#565=CARTESIAN_POINT('',(200.,-27.,650.));
#566=CARTESIAN_POINT('',(217.207293090531,-27.,674.57456132867));
#567=CARTESIAN_POINT('',(217.207293090531,-27.,674.57456132867));
#568=CARTESIAN_POINT('',(123.004807997297,21.4999999999998,740.53585150904));
#569=CARTESIAN_POINT('',(388.405380513385,4.78101242876338E-16,554.700369988103));
#570=CARTESIAN_POINT('',(371.198087422853,4.78101242876338E-16,530.125808659433));
#571=CARTESIAN_POINT('',(111.533279270276,-21.5,724.15281062326));
#572=CARTESIAN_POINT('',(111.533279270276,26.9999999999999,724.15281062326));
#573=CARTESIAN_POINT('',(376.933851786364,6.00406211984251E-16,538.317329102323));
#574=CARTESIAN_POINT('',(-265.400572516088,3.26042088425366E-13,185.835481520938));
#575=CARTESIAN_POINT('',(-265.400572516087,3.26042088425366E-13,185.835481520937));
#576=CARTESIAN_POINT('',(180.,-12.,670.));
#577=CARTESIAN_POINT('',(187.5,-12.,670.));
#578=CARTESIAN_POINT('',(180.,-12.,0.));
#579=CARTESIAN_POINT('',(187.5,-12.,0.));
#580=CARTESIAN_POINT('',(180.,-12.,670.));
#581=CARTESIAN_POINT('',(180.,-12.,670.));
#582=CARTESIAN_POINT('',(180.,-12.,0.));
#583=CARTESIAN_POINT('',(180.,12.,670.));
#584=CARTESIAN_POINT('',(187.5,12.,670.));
#585=CARTESIAN_POINT('',(180.,12.,0.));
#586=CARTESIAN_POINT('',(187.5,12.,0.));
#587=CARTESIAN_POINT('',(180.,12.,670.));
#588=CARTESIAN_POINT('',(180.,12.,670.));
#589=CARTESIAN_POINT('',(180.,12.,0.));
#590=CARTESIAN_POINT('',(74.,-12.,744.));
#591=CARTESIAN_POINT('',(81.5,-12.,744.));
#592=CARTESIAN_POINT('',(74.,-12.,0.));
#593=CARTESIAN_POINT('',(81.5,-12.,0.));
#594=CARTESIAN_POINT('',(74.,-12.,744.));
#595=CARTESIAN_POINT('',(74.,-12.,744.));
#596=CARTESIAN_POINT('',(74.,-12.,0.));
#597=CARTESIAN_POINT('',(74.,12.,744.));
#598=CARTESIAN_POINT('',(81.5,12.,744.));
#599=CARTESIAN_POINT('',(74.,12.,0.));
#600=CARTESIAN_POINT('',(81.5,12.,0.));
#601=CARTESIAN_POINT('',(74.,12.,744.));
#602=CARTESIAN_POINT('',(74.,12.,744.));
#603=CARTESIAN_POINT('',(74.,12.,0.));
#604=MECHANICAL_DESIGN_GEOMETRIC_PRESENTATION_REPRESENTATION('',(#44,#45,
#46,#47,#48),#605);
#605=(
GEOMETRIC_REPRESENTATION_CONTEXT(3)
GLOBAL_UNCERTAINTY_ASSIGNED_CONTEXT((#606))
GLOBAL_UNIT_ASSIGNED_CONTEXT((#612,#608,#607))
REPRESENTATION_CONTEXT('Utilcontenedor_1','TOP_LEVEL_ASSEMBLY_PART')
);
#606=UNCERTAINTY_MEASURE_WITH_UNIT(LENGTH_MEASURE(2.E-5),#612,
'DISTANCE_ACCURACY_VALUE','Maximum Tolerance applied to model');
#607=(
NAMED_UNIT(*)
SI_UNIT($,.STERADIAN.)
SOLID_ANGLE_UNIT()
);
#608=(
CONVERSION_BASED_UNIT('DEGREE',#610)
NAMED_UNIT(#609)
PLANE_ANGLE_UNIT()
);
#609=DIMENSIONAL_EXPONENTS(0.,0.,0.,0.,0.,0.,0.);
#610=PLANE_ANGLE_MEASURE_WITH_UNIT(PLANE_ANGLE_MEASURE(0.0174532925),#611);
#611=(
NAMED_UNIT(*)
PLANE_ANGLE_UNIT()
SI_UNIT($,.RADIAN.)
);
#612=(
LENGTH_UNIT()
NAMED_UNIT(*)
SI_UNIT(.MILLI.,.METRE.)
);
ENDSEC;
END-ISO-10303-21;
