ISO-10303-21;
HEADER;
/* Generated by software containing ST-Developer
 * from STEP Tools, Inc. (www.steptools.com) 
 */
/* OPTION: using custom schema-name function */

FILE_DESCRIPTION(
/* description */ (''),
/* implementation_level */ '2;1');

FILE_NAME(
/* name */ 'BandejaOK_2.stp',
/* time_stamp */ '2026-05-15T19:53:25+02:00',
/* author */ (''),
/* organization */ (''),
/* preprocessor_version */ 'ST-DEVELOPER v19.3',
/* originating_system */ 'SIEMENS PLM Software NX2212.5000',
/* authorisation */ '');

FILE_SCHEMA (('AUTOMOTIVE_DESIGN { 1 0 10303 214 3 1 1 1 }'));
ENDSEC;

DATA;
#10=SHAPE_REPRESENTATION_RELATIONSHIP('None',
'relationship between BandejaOK-None and BandejaOK-None',#22,#11);
#11=ADVANCED_BREP_SHAPE_REPRESENTATION('BandejaOK-None',(#243),#1126);
#12=SHAPE_DEFINITION_REPRESENTATION(#13,#22);
#13=PRODUCT_DEFINITION_SHAPE('','',#14);
#14=PRODUCT_DEFINITION(' ','',#16,#15);
#15=PRODUCT_DEFINITION_CONTEXT('part definition',#21,'design');
#16=PRODUCT_DEFINITION_FORMATION_WITH_SPECIFIED_SOURCE(' ',' ',#18,
 .NOT_KNOWN.);
#17=PRODUCT_RELATED_PRODUCT_CATEGORY('part','',(#18));
#18=PRODUCT('BandejaOK','BandejaOK',' ',(#19));
#19=PRODUCT_CONTEXT(' ',#21,'mechanical');
#20=APPLICATION_PROTOCOL_DEFINITION('international standard',
'automotive_design',2010,#21);
#21=APPLICATION_CONTEXT(
'core data for automotive mechanical design processes');
#22=SHAPE_REPRESENTATION('BandejaOK-None',(#785),#1126);
#23=OVER_RIDING_STYLED_ITEM('',(#56),#249,#54);
#24=OVER_RIDING_STYLED_ITEM('',(#57),#250,#54);
#25=OVER_RIDING_STYLED_ITEM('',(#58),#251,#54);
#26=OVER_RIDING_STYLED_ITEM('',(#59),#252,#54);
#27=OVER_RIDING_STYLED_ITEM('',(#60),#253,#54);
#28=OVER_RIDING_STYLED_ITEM('',(#61),#254,#54);
#29=OVER_RIDING_STYLED_ITEM('',(#62),#255,#54);
#30=OVER_RIDING_STYLED_ITEM('',(#63),#256,#54);
#31=OVER_RIDING_STYLED_ITEM('',(#64),#257,#54);
#32=OVER_RIDING_STYLED_ITEM('',(#65),#258,#54);
#33=OVER_RIDING_STYLED_ITEM('',(#66),#259,#54);
#34=OVER_RIDING_STYLED_ITEM('',(#67),#260,#54);
#35=OVER_RIDING_STYLED_ITEM('',(#68),#261,#54);
#36=OVER_RIDING_STYLED_ITEM('',(#69),#262,#54);
#37=OVER_RIDING_STYLED_ITEM('',(#70),#263,#54);
#38=OVER_RIDING_STYLED_ITEM('',(#71),#264,#54);
#39=OVER_RIDING_STYLED_ITEM('',(#72),#265,#54);
#40=OVER_RIDING_STYLED_ITEM('',(#73),#266,#54);
#41=OVER_RIDING_STYLED_ITEM('',(#74),#267,#54);
#42=OVER_RIDING_STYLED_ITEM('',(#75),#268,#54);
#43=OVER_RIDING_STYLED_ITEM('',(#76),#269,#54);
#44=OVER_RIDING_STYLED_ITEM('',(#77),#270,#54);
#45=OVER_RIDING_STYLED_ITEM('',(#78),#271,#54);
#46=OVER_RIDING_STYLED_ITEM('',(#79),#272,#54);
#47=OVER_RIDING_STYLED_ITEM('',(#80),#273,#54);
#48=OVER_RIDING_STYLED_ITEM('',(#81),#274,#54);
#49=OVER_RIDING_STYLED_ITEM('',(#82),#275,#54);
#50=OVER_RIDING_STYLED_ITEM('',(#83),#276,#54);
#51=OVER_RIDING_STYLED_ITEM('',(#84),#277,#54);
#52=OVER_RIDING_STYLED_ITEM('',(#85),#278,#54);
#53=PRESENTATION_LAYER_ASSIGNMENT('1','Layer 1',(#243));
#54=STYLED_ITEM('',(#55),#243);
#55=PRESENTATION_STYLE_ASSIGNMENT((#86));
#56=PRESENTATION_STYLE_ASSIGNMENT((#87));
#57=PRESENTATION_STYLE_ASSIGNMENT((#88));
#58=PRESENTATION_STYLE_ASSIGNMENT((#89));
#59=PRESENTATION_STYLE_ASSIGNMENT((#90));
#60=PRESENTATION_STYLE_ASSIGNMENT((#91));
#61=PRESENTATION_STYLE_ASSIGNMENT((#92));
#62=PRESENTATION_STYLE_ASSIGNMENT((#93));
#63=PRESENTATION_STYLE_ASSIGNMENT((#94));
#64=PRESENTATION_STYLE_ASSIGNMENT((#95));
#65=PRESENTATION_STYLE_ASSIGNMENT((#96));
#66=PRESENTATION_STYLE_ASSIGNMENT((#97));
#67=PRESENTATION_STYLE_ASSIGNMENT((#98));
#68=PRESENTATION_STYLE_ASSIGNMENT((#99));
#69=PRESENTATION_STYLE_ASSIGNMENT((#100));
#70=PRESENTATION_STYLE_ASSIGNMENT((#101));
#71=PRESENTATION_STYLE_ASSIGNMENT((#102));
#72=PRESENTATION_STYLE_ASSIGNMENT((#103));
#73=PRESENTATION_STYLE_ASSIGNMENT((#104));
#74=PRESENTATION_STYLE_ASSIGNMENT((#105));
#75=PRESENTATION_STYLE_ASSIGNMENT((#106));
#76=PRESENTATION_STYLE_ASSIGNMENT((#107));
#77=PRESENTATION_STYLE_ASSIGNMENT((#108));
#78=PRESENTATION_STYLE_ASSIGNMENT((#109));
#79=PRESENTATION_STYLE_ASSIGNMENT((#110));
#80=PRESENTATION_STYLE_ASSIGNMENT((#111));
#81=PRESENTATION_STYLE_ASSIGNMENT((#112));
#82=PRESENTATION_STYLE_ASSIGNMENT((#113));
#83=PRESENTATION_STYLE_ASSIGNMENT((#114));
#84=PRESENTATION_STYLE_ASSIGNMENT((#115));
#85=PRESENTATION_STYLE_ASSIGNMENT((#116));
#86=SURFACE_STYLE_USAGE(.BOTH.,#117);
#87=SURFACE_STYLE_USAGE(.BOTH.,#118);
#88=SURFACE_STYLE_USAGE(.BOTH.,#119);
#89=SURFACE_STYLE_USAGE(.BOTH.,#120);
#90=SURFACE_STYLE_USAGE(.BOTH.,#121);
#91=SURFACE_STYLE_USAGE(.BOTH.,#122);
#92=SURFACE_STYLE_USAGE(.BOTH.,#123);
#93=SURFACE_STYLE_USAGE(.BOTH.,#124);
#94=SURFACE_STYLE_USAGE(.BOTH.,#125);
#95=SURFACE_STYLE_USAGE(.BOTH.,#126);
#96=SURFACE_STYLE_USAGE(.BOTH.,#127);
#97=SURFACE_STYLE_USAGE(.BOTH.,#128);
#98=SURFACE_STYLE_USAGE(.BOTH.,#129);
#99=SURFACE_STYLE_USAGE(.BOTH.,#130);
#100=SURFACE_STYLE_USAGE(.BOTH.,#131);
#101=SURFACE_STYLE_USAGE(.BOTH.,#132);
#102=SURFACE_STYLE_USAGE(.BOTH.,#133);
#103=SURFACE_STYLE_USAGE(.BOTH.,#134);
#104=SURFACE_STYLE_USAGE(.BOTH.,#135);
#105=SURFACE_STYLE_USAGE(.BOTH.,#136);
#106=SURFACE_STYLE_USAGE(.BOTH.,#137);
#107=SURFACE_STYLE_USAGE(.BOTH.,#138);
#108=SURFACE_STYLE_USAGE(.BOTH.,#139);
#109=SURFACE_STYLE_USAGE(.BOTH.,#140);
#110=SURFACE_STYLE_USAGE(.BOTH.,#141);
#111=SURFACE_STYLE_USAGE(.BOTH.,#142);
#112=SURFACE_STYLE_USAGE(.BOTH.,#143);
#113=SURFACE_STYLE_USAGE(.BOTH.,#144);
#114=SURFACE_STYLE_USAGE(.BOTH.,#145);
#115=SURFACE_STYLE_USAGE(.BOTH.,#146);
#116=SURFACE_STYLE_USAGE(.BOTH.,#147);
#117=SURFACE_SIDE_STYLE('',(#148));
#118=SURFACE_SIDE_STYLE('',(#149));
#119=SURFACE_SIDE_STYLE('',(#150));
#120=SURFACE_SIDE_STYLE('',(#151));
#121=SURFACE_SIDE_STYLE('',(#152));
#122=SURFACE_SIDE_STYLE('',(#153));
#123=SURFACE_SIDE_STYLE('',(#154));
#124=SURFACE_SIDE_STYLE('',(#155));
#125=SURFACE_SIDE_STYLE('',(#156));
#126=SURFACE_SIDE_STYLE('',(#157));
#127=SURFACE_SIDE_STYLE('',(#158));
#128=SURFACE_SIDE_STYLE('',(#159));
#129=SURFACE_SIDE_STYLE('',(#160));
#130=SURFACE_SIDE_STYLE('',(#161));
#131=SURFACE_SIDE_STYLE('',(#162));
#132=SURFACE_SIDE_STYLE('',(#163));
#133=SURFACE_SIDE_STYLE('',(#164));
#134=SURFACE_SIDE_STYLE('',(#165));
#135=SURFACE_SIDE_STYLE('',(#166));
#136=SURFACE_SIDE_STYLE('',(#167));
#137=SURFACE_SIDE_STYLE('',(#168));
#138=SURFACE_SIDE_STYLE('',(#169));
#139=SURFACE_SIDE_STYLE('',(#170));
#140=SURFACE_SIDE_STYLE('',(#171));
#141=SURFACE_SIDE_STYLE('',(#172));
#142=SURFACE_SIDE_STYLE('',(#173));
#143=SURFACE_SIDE_STYLE('',(#174));
#144=SURFACE_SIDE_STYLE('',(#175));
#145=SURFACE_SIDE_STYLE('',(#176));
#146=SURFACE_SIDE_STYLE('',(#177));
#147=SURFACE_SIDE_STYLE('',(#178));
#148=SURFACE_STYLE_FILL_AREA(#179);
#149=SURFACE_STYLE_FILL_AREA(#180);
#150=SURFACE_STYLE_FILL_AREA(#181);
#151=SURFACE_STYLE_FILL_AREA(#182);
#152=SURFACE_STYLE_FILL_AREA(#183);
#153=SURFACE_STYLE_FILL_AREA(#184);
#154=SURFACE_STYLE_FILL_AREA(#185);
#155=SURFACE_STYLE_FILL_AREA(#186);
#156=SURFACE_STYLE_FILL_AREA(#187);
#157=SURFACE_STYLE_FILL_AREA(#188);
#158=SURFACE_STYLE_FILL_AREA(#189);
#159=SURFACE_STYLE_FILL_AREA(#190);
#160=SURFACE_STYLE_FILL_AREA(#191);
#161=SURFACE_STYLE_FILL_AREA(#192);
#162=SURFACE_STYLE_FILL_AREA(#193);
#163=SURFACE_STYLE_FILL_AREA(#194);
#164=SURFACE_STYLE_FILL_AREA(#195);
#165=SURFACE_STYLE_FILL_AREA(#196);
#166=SURFACE_STYLE_FILL_AREA(#197);
#167=SURFACE_STYLE_FILL_AREA(#198);
#168=SURFACE_STYLE_FILL_AREA(#199);
#169=SURFACE_STYLE_FILL_AREA(#200);
#170=SURFACE_STYLE_FILL_AREA(#201);
#171=SURFACE_STYLE_FILL_AREA(#202);
#172=SURFACE_STYLE_FILL_AREA(#203);
#173=SURFACE_STYLE_FILL_AREA(#204);
#174=SURFACE_STYLE_FILL_AREA(#205);
#175=SURFACE_STYLE_FILL_AREA(#206);
#176=SURFACE_STYLE_FILL_AREA(#207);
#177=SURFACE_STYLE_FILL_AREA(#208);
#178=SURFACE_STYLE_FILL_AREA(#209);
#179=FILL_AREA_STYLE('',(#210));
#180=FILL_AREA_STYLE('',(#211));
#181=FILL_AREA_STYLE('',(#212));
#182=FILL_AREA_STYLE('',(#213));
#183=FILL_AREA_STYLE('',(#214));
#184=FILL_AREA_STYLE('',(#215));
#185=FILL_AREA_STYLE('',(#216));
#186=FILL_AREA_STYLE('',(#217));
#187=FILL_AREA_STYLE('',(#218));
#188=FILL_AREA_STYLE('',(#219));
#189=FILL_AREA_STYLE('',(#220));
#190=FILL_AREA_STYLE('',(#221));
#191=FILL_AREA_STYLE('',(#222));
#192=FILL_AREA_STYLE('',(#223));
#193=FILL_AREA_STYLE('',(#224));
#194=FILL_AREA_STYLE('',(#225));
#195=FILL_AREA_STYLE('',(#226));
#196=FILL_AREA_STYLE('',(#227));
#197=FILL_AREA_STYLE('',(#228));
#198=FILL_AREA_STYLE('',(#229));
#199=FILL_AREA_STYLE('',(#230));
#200=FILL_AREA_STYLE('',(#231));
#201=FILL_AREA_STYLE('',(#232));
#202=FILL_AREA_STYLE('',(#233));
#203=FILL_AREA_STYLE('',(#234));
#204=FILL_AREA_STYLE('',(#235));
#205=FILL_AREA_STYLE('',(#236));
#206=FILL_AREA_STYLE('',(#237));
#207=FILL_AREA_STYLE('',(#238));
#208=FILL_AREA_STYLE('',(#239));
#209=FILL_AREA_STYLE('',(#240));
#210=FILL_AREA_STYLE_COLOUR('',#241);
#211=FILL_AREA_STYLE_COLOUR('',#242);
#212=FILL_AREA_STYLE_COLOUR('',#242);
#213=FILL_AREA_STYLE_COLOUR('',#242);
#214=FILL_AREA_STYLE_COLOUR('',#242);
#215=FILL_AREA_STYLE_COLOUR('',#242);
#216=FILL_AREA_STYLE_COLOUR('',#242);
#217=FILL_AREA_STYLE_COLOUR('',#242);
#218=FILL_AREA_STYLE_COLOUR('',#242);
#219=FILL_AREA_STYLE_COLOUR('',#242);
#220=FILL_AREA_STYLE_COLOUR('',#242);
#221=FILL_AREA_STYLE_COLOUR('',#242);
#222=FILL_AREA_STYLE_COLOUR('',#242);
#223=FILL_AREA_STYLE_COLOUR('',#242);
#224=FILL_AREA_STYLE_COLOUR('',#242);
#225=FILL_AREA_STYLE_COLOUR('',#242);
#226=FILL_AREA_STYLE_COLOUR('',#242);
#227=FILL_AREA_STYLE_COLOUR('',#242);
#228=FILL_AREA_STYLE_COLOUR('',#242);
#229=FILL_AREA_STYLE_COLOUR('',#242);
#230=FILL_AREA_STYLE_COLOUR('',#242);
#231=FILL_AREA_STYLE_COLOUR('',#242);
#232=FILL_AREA_STYLE_COLOUR('',#242);
#233=FILL_AREA_STYLE_COLOUR('',#242);
#234=FILL_AREA_STYLE_COLOUR('',#242);
#235=FILL_AREA_STYLE_COLOUR('',#242);
#236=FILL_AREA_STYLE_COLOUR('',#242);
#237=FILL_AREA_STYLE_COLOUR('',#242);
#238=FILL_AREA_STYLE_COLOUR('',#242);
#239=FILL_AREA_STYLE_COLOUR('',#242);
#240=FILL_AREA_STYLE_COLOUR('',#242);
#241=COLOUR_RGB('Medium Steel',0.611764705882353,0.658823529411765,0.670588235294118);
#242=COLOUR_RGB('emerald',0.,0.6,0.);
#243=MANIFOLD_SOLID_BREP('',#244);
#244=CLOSED_SHELL('',(#249,#250,#251,#252,#253,#254,#255,#256,#257,#258,
#259,#260,#261,#262,#263,#264,#265,#266,#267,#268,#269,#270,#271,#272,#273,
#274,#275,#276,#277,#278));
#245=CYLINDRICAL_SURFACE('',#800,85.0000000000001);
#246=CYLINDRICAL_SURFACE('',#801,85.0000000000001);
#247=CYLINDRICAL_SURFACE('',#822,85.0000000000001);
#248=CYLINDRICAL_SURFACE('',#823,85.0000000000001);
#249=ADVANCED_FACE('',(#305),#279,.F.);
#250=ADVANCED_FACE('',(#306),#280,.F.);
#251=ADVANCED_FACE('',(#307),#281,.F.);
#252=ADVANCED_FACE('',(#308),#282,.T.);
#253=ADVANCED_FACE('',(#309),#283,.F.);
#254=ADVANCED_FACE('',(#310),#284,.F.);
#255=ADVANCED_FACE('',(#311),#285,.F.);
#256=ADVANCED_FACE('',(#312),#286,.F.);
#257=ADVANCED_FACE('',(#313),#287,.F.);
#258=ADVANCED_FACE('',(#314),#288,.F.);
#259=ADVANCED_FACE('',(#315),#245,.T.);
#260=ADVANCED_FACE('',(#316),#246,.T.);
#261=ADVANCED_FACE('',(#317),#289,.T.);
#262=ADVANCED_FACE('',(#318),#290,.T.);
#263=ADVANCED_FACE('',(#319),#291,.T.);
#264=ADVANCED_FACE('',(#320),#292,.F.);
#265=ADVANCED_FACE('',(#321),#293,.F.);
#266=ADVANCED_FACE('',(#322),#294,.T.);
#267=ADVANCED_FACE('',(#323),#295,.T.);
#268=ADVANCED_FACE('',(#324),#296,.T.);
#269=ADVANCED_FACE('',(#325),#297,.F.);
#270=ADVANCED_FACE('',(#326),#298,.T.);
#271=ADVANCED_FACE('',(#327),#299,.T.);
#272=ADVANCED_FACE('',(#328),#300,.T.);
#273=ADVANCED_FACE('',(#329),#301,.T.);
#274=ADVANCED_FACE('',(#330),#302,.T.);
#275=ADVANCED_FACE('',(#331),#303,.T.);
#276=ADVANCED_FACE('',(#332),#304,.T.);
#277=ADVANCED_FACE('',(#333),#247,.T.);
#278=ADVANCED_FACE('',(#334),#248,.T.);
#279=PLANE('',#787);
#280=PLANE('',#789);
#281=PLANE('',#791);
#282=PLANE('',#792);
#283=PLANE('',#793);
#284=PLANE('',#794);
#285=PLANE('',#795);
#286=PLANE('',#797);
#287=PLANE('',#798);
#288=PLANE('',#799);
#289=PLANE('',#802);
#290=PLANE('',#803);
#291=PLANE('',#804);
#292=PLANE('',#805);
#293=PLANE('',#806);
#294=PLANE('',#807);
#295=PLANE('',#808);
#296=PLANE('',#809);
#297=PLANE('',#810);
#298=PLANE('',#812);
#299=PLANE('',#814);
#300=PLANE('',#816);
#301=PLANE('',#818);
#302=PLANE('',#819);
#303=PLANE('',#820);
#304=PLANE('',#821);
#305=FACE_OUTER_BOUND('',#335,.T.);
#306=FACE_OUTER_BOUND('',#336,.T.);
#307=FACE_OUTER_BOUND('',#337,.T.);
#308=FACE_OUTER_BOUND('',#338,.T.);
#309=FACE_OUTER_BOUND('',#339,.T.);
#310=FACE_OUTER_BOUND('',#340,.T.);
#311=FACE_OUTER_BOUND('',#341,.T.);
#312=FACE_OUTER_BOUND('',#342,.T.);
#313=FACE_OUTER_BOUND('',#343,.T.);
#314=FACE_OUTER_BOUND('',#344,.T.);
#315=FACE_OUTER_BOUND('',#345,.T.);
#316=FACE_OUTER_BOUND('',#346,.T.);
#317=FACE_OUTER_BOUND('',#347,.T.);
#318=FACE_OUTER_BOUND('',#348,.T.);
#319=FACE_OUTER_BOUND('',#349,.T.);
#320=FACE_OUTER_BOUND('',#350,.T.);
#321=FACE_OUTER_BOUND('',#351,.T.);
#322=FACE_OUTER_BOUND('',#352,.T.);
#323=FACE_OUTER_BOUND('',#353,.T.);
#324=FACE_OUTER_BOUND('',#354,.T.);
#325=FACE_OUTER_BOUND('',#355,.T.);
#326=FACE_OUTER_BOUND('',#356,.T.);
#327=FACE_OUTER_BOUND('',#357,.T.);
#328=FACE_OUTER_BOUND('',#358,.T.);
#329=FACE_OUTER_BOUND('',#359,.T.);
#330=FACE_OUTER_BOUND('',#360,.T.);
#331=FACE_OUTER_BOUND('',#361,.T.);
#332=FACE_OUTER_BOUND('',#362,.T.);
#333=FACE_OUTER_BOUND('',#363,.T.);
#334=FACE_OUTER_BOUND('',#364,.T.);
#335=EDGE_LOOP('',(#373,#374,#375,#376));
#336=EDGE_LOOP('',(#377,#378,#379,#380));
#337=EDGE_LOOP('',(#381,#382,#383,#384));
#338=EDGE_LOOP('',(#385,#386,#387,#388,#389,#390,#391,#392,#393,#394,#395,
#396,#397,#398,#399,#400,#401,#402,#403,#404));
#339=EDGE_LOOP('',(#405,#406,#407,#408,#409,#410,#411,#412));
#340=EDGE_LOOP('',(#413,#414,#415,#416));
#341=EDGE_LOOP('',(#417,#418,#419,#420));
#342=EDGE_LOOP('',(#421,#422,#423,#424));
#343=EDGE_LOOP('',(#425,#426,#427,#428));
#344=EDGE_LOOP('',(#429,#430,#431,#432,#433,#434,#435,#436));
#345=EDGE_LOOP('',(#437,#438,#439,#440));
#346=EDGE_LOOP('',(#441,#442,#443,#444));
#347=EDGE_LOOP('',(#445,#446,#447,#448));
#348=EDGE_LOOP('',(#449,#450,#451,#452));
#349=EDGE_LOOP('',(#453,#454,#455,#456));
#350=EDGE_LOOP('',(#457,#458,#459,#460,#461,#462,#463,#464));
#351=EDGE_LOOP('',(#465,#466,#467,#468));
#352=EDGE_LOOP('',(#469,#470,#471,#472));
#353=EDGE_LOOP('',(#473,#474,#475,#476));
#354=EDGE_LOOP('',(#477,#478,#479,#480));
#355=EDGE_LOOP('',(#481,#482,#483,#484,#485,#486,#487,#488));
#356=EDGE_LOOP('',(#489,#490,#491,#492));
#357=EDGE_LOOP('',(#493,#494,#495,#496));
#358=EDGE_LOOP('',(#497,#498,#499,#500));
#359=EDGE_LOOP('',(#501,#502,#503,#504));
#360=EDGE_LOOP('',(#505,#506,#507,#508));
#361=EDGE_LOOP('',(#509,#510,#511,#512));
#362=EDGE_LOOP('',(#513,#514,#515,#516));
#363=EDGE_LOOP('',(#517,#518,#519,#520));
#364=EDGE_LOOP('',(#521,#522,#523,#524));
#365=CIRCLE('',#786,85.0000000000001);
#366=CIRCLE('',#788,85.0000000000001);
#367=CIRCLE('',#790,85.0000000000001);
#368=CIRCLE('',#796,85.0000000000001);
#369=CIRCLE('',#811,85.0000000000001);
#370=CIRCLE('',#813,85.0000000000001);
#371=CIRCLE('',#815,85.0000000000001);
#372=CIRCLE('',#817,85.0000000000001);
#373=ORIENTED_EDGE('',*,*,#573,.T.);
#374=ORIENTED_EDGE('',*,*,#574,.T.);
#375=ORIENTED_EDGE('',*,*,#575,.F.);
#376=ORIENTED_EDGE('',*,*,#576,.T.);
#377=ORIENTED_EDGE('',*,*,#577,.F.);
#378=ORIENTED_EDGE('',*,*,#578,.T.);
#379=ORIENTED_EDGE('',*,*,#579,.T.);
#380=ORIENTED_EDGE('',*,*,#580,.F.);
#381=ORIENTED_EDGE('',*,*,#581,.T.);
#382=ORIENTED_EDGE('',*,*,#582,.T.);
#383=ORIENTED_EDGE('',*,*,#583,.F.);
#384=ORIENTED_EDGE('',*,*,#584,.T.);
#385=ORIENTED_EDGE('',*,*,#575,.T.);
#386=ORIENTED_EDGE('',*,*,#585,.T.);
#387=ORIENTED_EDGE('',*,*,#577,.T.);
#388=ORIENTED_EDGE('',*,*,#586,.T.);
#389=ORIENTED_EDGE('',*,*,#583,.T.);
#390=ORIENTED_EDGE('',*,*,#587,.T.);
#391=ORIENTED_EDGE('',*,*,#588,.T.);
#392=ORIENTED_EDGE('',*,*,#589,.T.);
#393=ORIENTED_EDGE('',*,*,#590,.T.);
#394=ORIENTED_EDGE('',*,*,#591,.F.);
#395=ORIENTED_EDGE('',*,*,#592,.F.);
#396=ORIENTED_EDGE('',*,*,#593,.F.);
#397=ORIENTED_EDGE('',*,*,#594,.F.);
#398=ORIENTED_EDGE('',*,*,#595,.F.);
#399=ORIENTED_EDGE('',*,*,#596,.F.);
#400=ORIENTED_EDGE('',*,*,#597,.F.);
#401=ORIENTED_EDGE('',*,*,#598,.F.);
#402=ORIENTED_EDGE('',*,*,#599,.F.);
#403=ORIENTED_EDGE('',*,*,#600,.T.);
#404=ORIENTED_EDGE('',*,*,#601,.T.);
#405=ORIENTED_EDGE('',*,*,#600,.F.);
#406=ORIENTED_EDGE('',*,*,#602,.T.);
#407=ORIENTED_EDGE('',*,*,#603,.T.);
#408=ORIENTED_EDGE('',*,*,#604,.T.);
#409=ORIENTED_EDGE('',*,*,#605,.T.);
#410=ORIENTED_EDGE('',*,*,#606,.F.);
#411=ORIENTED_EDGE('',*,*,#607,.F.);
#412=ORIENTED_EDGE('',*,*,#608,.F.);
#413=ORIENTED_EDGE('',*,*,#609,.T.);
#414=ORIENTED_EDGE('',*,*,#576,.F.);
#415=ORIENTED_EDGE('',*,*,#601,.F.);
#416=ORIENTED_EDGE('',*,*,#608,.T.);
#417=ORIENTED_EDGE('',*,*,#610,.T.);
#418=ORIENTED_EDGE('',*,*,#584,.F.);
#419=ORIENTED_EDGE('',*,*,#586,.F.);
#420=ORIENTED_EDGE('',*,*,#580,.T.);
#421=ORIENTED_EDGE('',*,*,#611,.F.);
#422=ORIENTED_EDGE('',*,*,#612,.T.);
#423=ORIENTED_EDGE('',*,*,#613,.F.);
#424=ORIENTED_EDGE('',*,*,#588,.F.);
#425=ORIENTED_EDGE('',*,*,#614,.T.);
#426=ORIENTED_EDGE('',*,*,#615,.F.);
#427=ORIENTED_EDGE('',*,*,#589,.F.);
#428=ORIENTED_EDGE('',*,*,#613,.T.);
#429=ORIENTED_EDGE('',*,*,#615,.T.);
#430=ORIENTED_EDGE('',*,*,#616,.F.);
#431=ORIENTED_EDGE('',*,*,#617,.T.);
#432=ORIENTED_EDGE('',*,*,#618,.T.);
#433=ORIENTED_EDGE('',*,*,#619,.F.);
#434=ORIENTED_EDGE('',*,*,#620,.T.);
#435=ORIENTED_EDGE('',*,*,#621,.F.);
#436=ORIENTED_EDGE('',*,*,#590,.F.);
#437=ORIENTED_EDGE('',*,*,#622,.T.);
#438=ORIENTED_EDGE('',*,*,#611,.T.);
#439=ORIENTED_EDGE('',*,*,#587,.F.);
#440=ORIENTED_EDGE('',*,*,#582,.F.);
#441=ORIENTED_EDGE('',*,*,#623,.T.);
#442=ORIENTED_EDGE('',*,*,#578,.F.);
#443=ORIENTED_EDGE('',*,*,#585,.F.);
#444=ORIENTED_EDGE('',*,*,#574,.F.);
#445=ORIENTED_EDGE('',*,*,#614,.F.);
#446=ORIENTED_EDGE('',*,*,#612,.F.);
#447=ORIENTED_EDGE('',*,*,#624,.T.);
#448=ORIENTED_EDGE('',*,*,#616,.T.);
#449=ORIENTED_EDGE('',*,*,#581,.F.);
#450=ORIENTED_EDGE('',*,*,#610,.F.);
#451=ORIENTED_EDGE('',*,*,#579,.F.);
#452=ORIENTED_EDGE('',*,*,#625,.T.);
#453=ORIENTED_EDGE('',*,*,#573,.F.);
#454=ORIENTED_EDGE('',*,*,#609,.F.);
#455=ORIENTED_EDGE('',*,*,#607,.T.);
#456=ORIENTED_EDGE('',*,*,#626,.T.);
#457=ORIENTED_EDGE('',*,*,#627,.T.);
#458=ORIENTED_EDGE('',*,*,#617,.F.);
#459=ORIENTED_EDGE('',*,*,#624,.F.);
#460=ORIENTED_EDGE('',*,*,#622,.F.);
#461=ORIENTED_EDGE('',*,*,#625,.F.);
#462=ORIENTED_EDGE('',*,*,#623,.F.);
#463=ORIENTED_EDGE('',*,*,#626,.F.);
#464=ORIENTED_EDGE('',*,*,#606,.T.);
#465=ORIENTED_EDGE('',*,*,#618,.F.);
#466=ORIENTED_EDGE('',*,*,#627,.F.);
#467=ORIENTED_EDGE('',*,*,#605,.F.);
#468=ORIENTED_EDGE('',*,*,#628,.T.);
#469=ORIENTED_EDGE('',*,*,#603,.F.);
#470=ORIENTED_EDGE('',*,*,#629,.T.);
#471=ORIENTED_EDGE('',*,*,#630,.T.);
#472=ORIENTED_EDGE('',*,*,#631,.T.);
#473=ORIENTED_EDGE('',*,*,#632,.T.);
#474=ORIENTED_EDGE('',*,*,#633,.T.);
#475=ORIENTED_EDGE('',*,*,#634,.T.);
#476=ORIENTED_EDGE('',*,*,#635,.T.);
#477=ORIENTED_EDGE('',*,*,#636,.F.);
#478=ORIENTED_EDGE('',*,*,#637,.T.);
#479=ORIENTED_EDGE('',*,*,#638,.T.);
#480=ORIENTED_EDGE('',*,*,#620,.F.);
#481=ORIENTED_EDGE('',*,*,#628,.F.);
#482=ORIENTED_EDGE('',*,*,#604,.F.);
#483=ORIENTED_EDGE('',*,*,#631,.F.);
#484=ORIENTED_EDGE('',*,*,#639,.F.);
#485=ORIENTED_EDGE('',*,*,#632,.F.);
#486=ORIENTED_EDGE('',*,*,#640,.T.);
#487=ORIENTED_EDGE('',*,*,#636,.T.);
#488=ORIENTED_EDGE('',*,*,#619,.T.);
#489=ORIENTED_EDGE('',*,*,#598,.T.);
#490=ORIENTED_EDGE('',*,*,#641,.F.);
#491=ORIENTED_EDGE('',*,*,#630,.F.);
#492=ORIENTED_EDGE('',*,*,#642,.F.);
#493=ORIENTED_EDGE('',*,*,#633,.F.);
#494=ORIENTED_EDGE('',*,*,#643,.F.);
#495=ORIENTED_EDGE('',*,*,#596,.T.);
#496=ORIENTED_EDGE('',*,*,#644,.T.);
#497=ORIENTED_EDGE('',*,*,#594,.T.);
#498=ORIENTED_EDGE('',*,*,#645,.F.);
#499=ORIENTED_EDGE('',*,*,#635,.F.);
#500=ORIENTED_EDGE('',*,*,#646,.F.);
#501=ORIENTED_EDGE('',*,*,#637,.F.);
#502=ORIENTED_EDGE('',*,*,#647,.T.);
#503=ORIENTED_EDGE('',*,*,#592,.T.);
#504=ORIENTED_EDGE('',*,*,#648,.T.);
#505=ORIENTED_EDGE('',*,*,#629,.F.);
#506=ORIENTED_EDGE('',*,*,#602,.F.);
#507=ORIENTED_EDGE('',*,*,#599,.T.);
#508=ORIENTED_EDGE('',*,*,#642,.T.);
#509=ORIENTED_EDGE('',*,*,#634,.F.);
#510=ORIENTED_EDGE('',*,*,#644,.F.);
#511=ORIENTED_EDGE('',*,*,#595,.T.);
#512=ORIENTED_EDGE('',*,*,#646,.T.);
#513=ORIENTED_EDGE('',*,*,#638,.F.);
#514=ORIENTED_EDGE('',*,*,#648,.F.);
#515=ORIENTED_EDGE('',*,*,#591,.T.);
#516=ORIENTED_EDGE('',*,*,#621,.T.);
#517=ORIENTED_EDGE('',*,*,#593,.T.);
#518=ORIENTED_EDGE('',*,*,#647,.F.);
#519=ORIENTED_EDGE('',*,*,#640,.F.);
#520=ORIENTED_EDGE('',*,*,#645,.T.);
#521=ORIENTED_EDGE('',*,*,#597,.T.);
#522=ORIENTED_EDGE('',*,*,#643,.T.);
#523=ORIENTED_EDGE('',*,*,#639,.T.);
#524=ORIENTED_EDGE('',*,*,#641,.T.);
#525=VERTEX_POINT('',#972);
#526=VERTEX_POINT('',#973);
#527=VERTEX_POINT('',#975);
#528=VERTEX_POINT('',#977);
#529=VERTEX_POINT('',#981);
#530=VERTEX_POINT('',#982);
#531=VERTEX_POINT('',#984);
#532=VERTEX_POINT('',#986);
#533=VERTEX_POINT('',#990);
#534=VERTEX_POINT('',#991);
#535=VERTEX_POINT('',#993);
#536=VERTEX_POINT('',#995);
#537=VERTEX_POINT('',#1001);
#538=VERTEX_POINT('',#1003);
#539=VERTEX_POINT('',#1005);
#540=VERTEX_POINT('',#1007);
#541=VERTEX_POINT('',#1009);
#542=VERTEX_POINT('',#1011);
#543=VERTEX_POINT('',#1013);
#544=VERTEX_POINT('',#1015);
#545=VERTEX_POINT('',#1017);
#546=VERTEX_POINT('',#1019);
#547=VERTEX_POINT('',#1021);
#548=VERTEX_POINT('',#1023);
#549=VERTEX_POINT('',#1025);
#550=VERTEX_POINT('',#1027);
#551=VERTEX_POINT('',#1031);
#552=VERTEX_POINT('',#1033);
#553=VERTEX_POINT('',#1035);
#554=VERTEX_POINT('',#1037);
#555=VERTEX_POINT('',#1039);
#556=VERTEX_POINT('',#1041);
#557=VERTEX_POINT('',#1049);
#558=VERTEX_POINT('',#1051);
#559=VERTEX_POINT('',#1055);
#560=VERTEX_POINT('',#1059);
#561=VERTEX_POINT('',#1061);
#562=VERTEX_POINT('',#1063);
#563=VERTEX_POINT('',#1065);
#564=VERTEX_POINT('',#1067);
#565=VERTEX_POINT('',#1085);
#566=VERTEX_POINT('',#1087);
#567=VERTEX_POINT('',#1091);
#568=VERTEX_POINT('',#1092);
#569=VERTEX_POINT('',#1094);
#570=VERTEX_POINT('',#1096);
#571=VERTEX_POINT('',#1100);
#572=VERTEX_POINT('',#1102);
#573=EDGE_CURVE('',#525,#526,#649,.T.);
#574=EDGE_CURVE('',#526,#527,#365,.T.);
#575=EDGE_CURVE('',#528,#527,#650,.T.);
#576=EDGE_CURVE('',#528,#525,#651,.T.);
#577=EDGE_CURVE('',#529,#530,#652,.T.);
#578=EDGE_CURVE('',#529,#531,#366,.T.);
#579=EDGE_CURVE('',#531,#532,#653,.T.);
#580=EDGE_CURVE('',#530,#532,#654,.T.);
#581=EDGE_CURVE('',#533,#534,#655,.T.);
#582=EDGE_CURVE('',#534,#535,#367,.T.);
#583=EDGE_CURVE('',#536,#535,#656,.T.);
#584=EDGE_CURVE('',#536,#533,#657,.T.);
#585=EDGE_CURVE('',#527,#529,#658,.T.);
#586=EDGE_CURVE('',#530,#536,#659,.T.);
#587=EDGE_CURVE('',#535,#537,#660,.T.);
#588=EDGE_CURVE('',#537,#538,#661,.T.);
#589=EDGE_CURVE('',#538,#539,#662,.T.);
#590=EDGE_CURVE('',#539,#540,#663,.T.);
#591=EDGE_CURVE('',#541,#540,#664,.T.);
#592=EDGE_CURVE('',#542,#541,#665,.T.);
#593=EDGE_CURVE('',#543,#542,#666,.T.);
#594=EDGE_CURVE('',#544,#543,#667,.T.);
#595=EDGE_CURVE('',#545,#544,#668,.T.);
#596=EDGE_CURVE('',#546,#545,#669,.T.);
#597=EDGE_CURVE('',#547,#546,#670,.T.);
#598=EDGE_CURVE('',#548,#547,#671,.T.);
#599=EDGE_CURVE('',#549,#548,#672,.T.);
#600=EDGE_CURVE('',#549,#550,#673,.T.);
#601=EDGE_CURVE('',#550,#528,#674,.T.);
#602=EDGE_CURVE('',#549,#551,#675,.T.);
#603=EDGE_CURVE('',#551,#552,#676,.T.);
#604=EDGE_CURVE('',#552,#553,#677,.T.);
#605=EDGE_CURVE('',#553,#554,#678,.T.);
#606=EDGE_CURVE('',#555,#554,#679,.T.);
#607=EDGE_CURVE('',#556,#555,#680,.T.);
#608=EDGE_CURVE('',#550,#556,#681,.T.);
#609=EDGE_CURVE('',#556,#525,#682,.T.);
#610=EDGE_CURVE('',#532,#533,#683,.T.);
#611=EDGE_CURVE('',#557,#537,#368,.T.);
#612=EDGE_CURVE('',#557,#558,#684,.T.);
#613=EDGE_CURVE('',#538,#558,#685,.T.);
#614=EDGE_CURVE('',#558,#559,#686,.T.);
#615=EDGE_CURVE('',#539,#559,#687,.T.);
#616=EDGE_CURVE('',#560,#559,#688,.T.);
#617=EDGE_CURVE('',#560,#561,#689,.T.);
#618=EDGE_CURVE('',#561,#562,#690,.T.);
#619=EDGE_CURVE('',#563,#562,#691,.T.);
#620=EDGE_CURVE('',#563,#564,#692,.T.);
#621=EDGE_CURVE('',#540,#564,#693,.T.);
#622=EDGE_CURVE('',#534,#557,#694,.T.);
#623=EDGE_CURVE('',#526,#531,#695,.T.);
#624=EDGE_CURVE('',#557,#560,#696,.T.);
#625=EDGE_CURVE('',#531,#534,#697,.T.);
#626=EDGE_CURVE('',#555,#526,#698,.T.);
#627=EDGE_CURVE('',#554,#561,#699,.T.);
#628=EDGE_CURVE('',#553,#562,#700,.T.);
#629=EDGE_CURVE('',#551,#565,#701,.T.);
#630=EDGE_CURVE('',#565,#566,#702,.T.);
#631=EDGE_CURVE('',#566,#552,#703,.T.);
#632=EDGE_CURVE('',#567,#568,#704,.T.);
#633=EDGE_CURVE('',#568,#569,#705,.T.);
#634=EDGE_CURVE('',#569,#570,#706,.T.);
#635=EDGE_CURVE('',#570,#567,#707,.T.);
#636=EDGE_CURVE('',#571,#563,#708,.T.);
#637=EDGE_CURVE('',#571,#572,#709,.T.);
#638=EDGE_CURVE('',#572,#564,#710,.T.);
#639=EDGE_CURVE('',#568,#566,#711,.T.);
#640=EDGE_CURVE('',#567,#571,#712,.T.);
#641=EDGE_CURVE('',#566,#547,#369,.T.);
#642=EDGE_CURVE('',#548,#565,#713,.T.);
#643=EDGE_CURVE('',#546,#568,#370,.T.);
#644=EDGE_CURVE('',#545,#569,#714,.T.);
#645=EDGE_CURVE('',#567,#543,#371,.T.);
#646=EDGE_CURVE('',#544,#570,#715,.T.);
#647=EDGE_CURVE('',#571,#542,#372,.T.);
#648=EDGE_CURVE('',#541,#572,#716,.T.);
#649=LINE('',#971,#717);
#650=LINE('',#976,#718);
#651=LINE('',#978,#719);
#652=LINE('',#980,#720);
#653=LINE('',#985,#721);
#654=LINE('',#987,#722);
#655=LINE('',#989,#723);
#656=LINE('',#994,#724);
#657=LINE('',#996,#725);
#658=LINE('',#998,#726);
#659=LINE('',#999,#727);
#660=LINE('',#1000,#728);
#661=LINE('',#1002,#729);
#662=LINE('',#1004,#730);
#663=LINE('',#1006,#731);
#664=LINE('',#1008,#732);
#665=LINE('',#1010,#733);
#666=LINE('',#1012,#734);
#667=LINE('',#1014,#735);
#668=LINE('',#1016,#736);
#669=LINE('',#1018,#737);
#670=LINE('',#1020,#738);
#671=LINE('',#1022,#739);
#672=LINE('',#1024,#740);
#673=LINE('',#1026,#741);
#674=LINE('',#1028,#742);
#675=LINE('',#1030,#743);
#676=LINE('',#1032,#744);
#677=LINE('',#1034,#745);
#678=LINE('',#1036,#746);
#679=LINE('',#1038,#747);
#680=LINE('',#1040,#748);
#681=LINE('',#1042,#749);
#682=LINE('',#1044,#750);
#683=LINE('',#1046,#751);
#684=LINE('',#1050,#752);
#685=LINE('',#1052,#753);
#686=LINE('',#1054,#754);
#687=LINE('',#1056,#755);
#688=LINE('',#1058,#756);
#689=LINE('',#1060,#757);
#690=LINE('',#1062,#758);
#691=LINE('',#1064,#759);
#692=LINE('',#1066,#760);
#693=LINE('',#1068,#761);
#694=LINE('',#1070,#762);
#695=LINE('',#1072,#763);
#696=LINE('',#1074,#764);
#697=LINE('',#1076,#765);
#698=LINE('',#1078,#766);
#699=LINE('',#1080,#767);
#700=LINE('',#1082,#768);
#701=LINE('',#1084,#769);
#702=LINE('',#1086,#770);
#703=LINE('',#1088,#771);
#704=LINE('',#1090,#772);
#705=LINE('',#1093,#773);
#706=LINE('',#1095,#774);
#707=LINE('',#1097,#775);
#708=LINE('',#1099,#776);
#709=LINE('',#1101,#777);
#710=LINE('',#1103,#778);
#711=LINE('',#1105,#779);
#712=LINE('',#1106,#780);
#713=LINE('',#1109,#781);
#714=LINE('',#1112,#782);
#715=LINE('',#1115,#783);
#716=LINE('',#1118,#784);
#717=VECTOR('',#826,1.);
#718=VECTOR('',#829,1.);
#719=VECTOR('',#830,1.);
#720=VECTOR('',#833,1.);
#721=VECTOR('',#836,1.);
#722=VECTOR('',#837,1.);
#723=VECTOR('',#840,1.);
#724=VECTOR('',#843,1.);
#725=VECTOR('',#844,1.);
#726=VECTOR('',#847,1.);
#727=VECTOR('',#848,1.);
#728=VECTOR('',#849,1.);
#729=VECTOR('',#850,1.);
#730=VECTOR('',#851,1.);
#731=VECTOR('',#852,1.);
#732=VECTOR('',#853,1.);
#733=VECTOR('',#854,1.);
#734=VECTOR('',#855,1.);
#735=VECTOR('',#856,1.);
#736=VECTOR('',#857,1.);
#737=VECTOR('',#858,1.);
#738=VECTOR('',#859,1.);
#739=VECTOR('',#860,1.);
#740=VECTOR('',#861,1.);
#741=VECTOR('',#862,1.);
#742=VECTOR('',#863,1.);
#743=VECTOR('',#866,1.);
#744=VECTOR('',#867,1.);
#745=VECTOR('',#868,1.);
#746=VECTOR('',#869,1.);
#747=VECTOR('',#870,1.);
#748=VECTOR('',#871,1.);
#749=VECTOR('',#872,1.);
#750=VECTOR('',#875,1.);
#751=VECTOR('',#878,1.);
#752=VECTOR('',#883,1.);
#753=VECTOR('',#884,1.);
#754=VECTOR('',#887,1.);
#755=VECTOR('',#888,1.);
#756=VECTOR('',#891,1.);
#757=VECTOR('',#892,1.);
#758=VECTOR('',#893,1.);
#759=VECTOR('',#894,1.);
#760=VECTOR('',#895,1.);
#761=VECTOR('',#896,1.);
#762=VECTOR('',#899,1.);
#763=VECTOR('',#902,1.);
#764=VECTOR('',#905,1.);
#765=VECTOR('',#908,1.);
#766=VECTOR('',#911,1.);
#767=VECTOR('',#914,1.);
#768=VECTOR('',#917,1.);
#769=VECTOR('',#920,1.);
#770=VECTOR('',#921,1.);
#771=VECTOR('',#922,1.);
#772=VECTOR('',#925,1.);
#773=VECTOR('',#926,1.);
#774=VECTOR('',#927,1.);
#775=VECTOR('',#928,1.);
#776=VECTOR('',#931,1.);
#777=VECTOR('',#932,1.);
#778=VECTOR('',#933,1.);
#779=VECTOR('',#936,1.);
#780=VECTOR('',#937,1.);
#781=VECTOR('',#942,1.);
#782=VECTOR('',#947,1.);
#783=VECTOR('',#952,1.);
#784=VECTOR('',#957,1.);
#785=AXIS2_PLACEMENT_3D('',#970,#824,#825);
#786=AXIS2_PLACEMENT_3D('',#974,#827,#828);
#787=AXIS2_PLACEMENT_3D('',#979,#831,#832);
#788=AXIS2_PLACEMENT_3D('',#983,#834,#835);
#789=AXIS2_PLACEMENT_3D('',#988,#838,#839);
#790=AXIS2_PLACEMENT_3D('',#992,#841,#842);
#791=AXIS2_PLACEMENT_3D('',#997,#845,#846);
#792=AXIS2_PLACEMENT_3D('',#1029,#864,#865);
#793=AXIS2_PLACEMENT_3D('',#1043,#873,#874);
#794=AXIS2_PLACEMENT_3D('',#1045,#876,#877);
#795=AXIS2_PLACEMENT_3D('',#1047,#879,#880);
#796=AXIS2_PLACEMENT_3D('',#1048,#881,#882);
#797=AXIS2_PLACEMENT_3D('',#1053,#885,#886);
#798=AXIS2_PLACEMENT_3D('',#1057,#889,#890);
#799=AXIS2_PLACEMENT_3D('',#1069,#897,#898);
#800=AXIS2_PLACEMENT_3D('',#1071,#900,#901);
#801=AXIS2_PLACEMENT_3D('',#1073,#903,#904);
#802=AXIS2_PLACEMENT_3D('',#1075,#906,#907);
#803=AXIS2_PLACEMENT_3D('',#1077,#909,#910);
#804=AXIS2_PLACEMENT_3D('',#1079,#912,#913);
#805=AXIS2_PLACEMENT_3D('',#1081,#915,#916);
#806=AXIS2_PLACEMENT_3D('',#1083,#918,#919);
#807=AXIS2_PLACEMENT_3D('',#1089,#923,#924);
#808=AXIS2_PLACEMENT_3D('',#1098,#929,#930);
#809=AXIS2_PLACEMENT_3D('',#1104,#934,#935);
#810=AXIS2_PLACEMENT_3D('',#1107,#938,#939);
#811=AXIS2_PLACEMENT_3D('',#1108,#940,#941);
#812=AXIS2_PLACEMENT_3D('',#1110,#943,#944);
#813=AXIS2_PLACEMENT_3D('',#1111,#945,#946);
#814=AXIS2_PLACEMENT_3D('',#1113,#948,#949);
#815=AXIS2_PLACEMENT_3D('',#1114,#950,#951);
#816=AXIS2_PLACEMENT_3D('',#1116,#953,#954);
#817=AXIS2_PLACEMENT_3D('',#1117,#955,#956);
#818=AXIS2_PLACEMENT_3D('',#1119,#958,#959);
#819=AXIS2_PLACEMENT_3D('',#1120,#960,#961);
#820=AXIS2_PLACEMENT_3D('',#1121,#962,#963);
#821=AXIS2_PLACEMENT_3D('',#1122,#964,#965);
#822=AXIS2_PLACEMENT_3D('',#1123,#966,#967);
#823=AXIS2_PLACEMENT_3D('',#1124,#968,#969);
#824=DIRECTION('',(0.,0.,1.));
#825=DIRECTION('',(1.,0.,0.));
#826=DIRECTION('',(1.90323947078598E-15,1.,0.));
#827=DIRECTION('',(1.,-1.90323947078598E-15,0.));
#828=DIRECTION('',(-1.95921710227969E-15,-1.,0.));
#829=DIRECTION('',(1.90323947078598E-15,1.,0.));
#830=DIRECTION('',(0.,0.,-1.));
#831=DIRECTION('',(-1.,1.90323947078598E-15,0.));
#832=DIRECTION('',(-1.90125692967058E-15,-1.,0.));
#833=DIRECTION('',(-6.34413156928661E-16,-1.,0.));
#834=DIRECTION('',(-1.,6.34413156928661E-16,0.));
#835=DIRECTION('',(6.53072367426562E-16,1.,0.));
#836=DIRECTION('',(-6.34413156928661E-16,-1.,0.));
#837=DIRECTION('',(0.,0.,-1.));
#838=DIRECTION('',(1.,-6.34413156928661E-16,0.));
#839=DIRECTION('',(6.31439345255558E-16,1.,0.));
#840=DIRECTION('',(1.98254111540207E-15,1.,0.));
#841=DIRECTION('',(1.,-1.98254111540207E-15,0.));
#842=DIRECTION('',(-1.95921710227969E-15,-1.,0.));
#843=DIRECTION('',(1.98254111540207E-15,1.,0.));
#844=DIRECTION('',(0.,0.,-1.));
#845=DIRECTION('',(-1.,1.98254111540207E-15,0.));
#846=DIRECTION('',(-1.98452365651747E-15,-1.,0.));
#847=DIRECTION('',(-1.,0.,0.));
#848=DIRECTION('',(-1.,0.,0.));
#849=DIRECTION('',(-1.,0.,0.));
#850=DIRECTION('',(-4.75809867696496E-16,-1.,0.));
#851=DIRECTION('',(-1.,0.,0.));
#852=DIRECTION('',(0.,-1.,0.));
#853=DIRECTION('',(-1.,1.95921710227969E-15,0.));
#854=DIRECTION('',(1.42742960308949E-15,1.,0.));
#855=DIRECTION('',(-1.,2.00556417351641E-15,0.));
#856=DIRECTION('',(-7.93016446160826E-17,-1.,0.));
#857=DIRECTION('',(-1.,1.98254111540207E-15,0.));
#858=DIRECTION('',(1.42742960308949E-15,1.,0.));
#859=DIRECTION('',(-1.,2.00556417351641E-15,0.));
#860=DIRECTION('',(0.,-1.,0.));
#861=DIRECTION('',(-1.,2.01363979956523E-15,0.));
#862=DIRECTION('',(0.,1.,0.));
#863=DIRECTION('',(-1.,0.,0.));
#864=DIRECTION('',(0.,0.,1.));
#865=DIRECTION('',(1.,0.,0.));
#866=DIRECTION('',(0.,0.,-1.));
#867=DIRECTION('',(-3.39234813079909E-15,-1.,0.));
#868=DIRECTION('',(0.,0.,-1.));
#869=DIRECTION('',(-1.54197642309049E-15,1.,0.));
#870=DIRECTION('',(0.,0.,-1.));
#871=DIRECTION('',(-1.54197642309049E-15,1.,0.));
#872=DIRECTION('',(0.,0.,-1.));
#873=DIRECTION('',(-1.,0.,0.));
#874=DIRECTION('',(0.,0.,1.));
#875=DIRECTION('',(-1.,0.,0.));
#876=DIRECTION('',(0.,-1.,0.));
#877=DIRECTION('',(0.,0.,-1.));
#878=DIRECTION('',(-1.,0.,0.));
#879=DIRECTION('',(0.,-1.,0.));
#880=DIRECTION('',(0.,0.,-1.));
#881=DIRECTION('',(1.,0.,0.));
#882=DIRECTION('',(0.,-1.,1.63268091856641E-16));
#883=DIRECTION('',(-4.75809867696496E-16,-1.,0.));
#884=DIRECTION('',(0.,0.,-1.));
#885=DIRECTION('',(1.,-4.75809867696496E-16,0.));
#886=DIRECTION('',(4.71844785465692E-16,1.,0.));
#887=DIRECTION('',(-1.,0.,0.));
#888=DIRECTION('',(0.,0.,-1.));
#889=DIRECTION('',(0.,-1.,0.));
#890=DIRECTION('',(0.,0.,-1.));
#891=DIRECTION('',(1.54197642309048E-15,-1.,0.));
#892=DIRECTION('',(0.,0.,-1.));
#893=DIRECTION('',(1.54197642309048E-15,-1.,0.));
#894=DIRECTION('',(0.,0.,-1.));
#895=DIRECTION('',(3.39234813079906E-15,1.,0.));
#896=DIRECTION('',(0.,0.,-1.));
#897=DIRECTION('',(1.,0.,0.));
#898=DIRECTION('',(0.,0.,-1.));
#899=DIRECTION('',(-1.,0.,0.));
#900=DIRECTION('',(-1.,0.,0.));
#901=DIRECTION('',(0.,0.,1.));
#902=DIRECTION('',(-1.,0.,0.));
#903=DIRECTION('',(-1.,0.,0.));
#904=DIRECTION('',(0.,0.,1.));
#905=DIRECTION('',(-1.,0.,0.));
#906=DIRECTION('',(0.,0.,1.));
#907=DIRECTION('',(1.,0.,0.));
#908=DIRECTION('',(-1.,0.,0.));
#909=DIRECTION('',(0.,0.,1.));
#910=DIRECTION('',(1.,0.,0.));
#911=DIRECTION('',(-1.,0.,0.));
#912=DIRECTION('',(0.,0.,1.));
#913=DIRECTION('',(1.,0.,0.));
#914=DIRECTION('',(-1.,0.,0.));
#915=DIRECTION('',(0.,-1.,0.));
#916=DIRECTION('',(0.,0.,-1.));
#917=DIRECTION('',(-1.,2.00556417351641E-15,0.));
#918=DIRECTION('',(0.,0.,1.));
#919=DIRECTION('',(1.,0.,0.));
#920=DIRECTION('',(-1.,2.01363979956523E-15,0.));
#921=DIRECTION('',(0.,-1.,0.));
#922=DIRECTION('',(1.,-2.00556417351641E-15,0.));
#923=DIRECTION('',(0.,0.,1.));
#924=DIRECTION('',(1.,0.,0.));
#925=DIRECTION('',(1.,-2.00556417351641E-15,0.));
#926=DIRECTION('',(1.42742960308949E-15,1.,0.));
#927=DIRECTION('',(-1.,1.98254111540207E-15,0.));
#928=DIRECTION('',(-7.93016446160826E-17,-1.,0.));
#929=DIRECTION('',(0.,0.,1.));
#930=DIRECTION('',(1.,0.,0.));
#931=DIRECTION('',(-1.,2.00556417351641E-15,0.));
#932=DIRECTION('',(1.42742960308949E-15,1.,0.));
#933=DIRECTION('',(-1.,1.95921710227969E-15,0.));
#934=DIRECTION('',(0.,0.,1.));
#935=DIRECTION('',(1.,0.,0.));
#936=DIRECTION('',(1.,-5.55111512312576E-15,0.));
#937=DIRECTION('',(-1.,5.55111512312579E-15,0.));
#938=DIRECTION('',(2.00556417351641E-15,1.,0.));
#939=DIRECTION('',(-1.,1.99840144432528E-15,0.));
#940=DIRECTION('',(-1.,0.,0.));
#941=DIRECTION('',(0.,0.,-1.));
#942=DIRECTION('',(0.,0.,-1.));
#943=DIRECTION('',(1.,0.,0.));
#944=DIRECTION('',(0.,0.,-1.));
#945=DIRECTION('',(1.,-1.42742960308949E-15,0.));
#946=DIRECTION('',(-1.38777878078144E-15,-1.,0.));
#947=DIRECTION('',(0.,0.,-1.));
#948=DIRECTION('',(-1.,1.42742960308949E-15,0.));
#949=DIRECTION('',(-1.42941214420489E-15,-1.,0.));
#950=DIRECTION('',(-1.,7.93016446160826E-17,0.));
#951=DIRECTION('',(8.16340459283203E-17,1.,0.));
#952=DIRECTION('',(0.,0.,-1.));
#953=DIRECTION('',(1.,-7.93016446160826E-17,0.));
#954=DIRECTION('',(7.63278329429795E-17,1.,0.));
#955=DIRECTION('',(-1.,2.00556417351641E-15,0.));
#956=DIRECTION('',(1.95921710227969E-15,1.,1.63268091856641E-16));
#957=DIRECTION('',(0.,0.,-1.));
#958=DIRECTION('',(-1.,1.42742960308949E-15,0.));
#959=DIRECTION('',(-1.42941214420489E-15,-1.,0.));
#960=DIRECTION('',(-2.01363979956523E-15,-1.,0.));
#961=DIRECTION('',(1.,-2.0122792321331E-15,0.));
#962=DIRECTION('',(-1.98254111540207E-15,-1.,0.));
#963=DIRECTION('',(1.,-1.98452365651747E-15,0.));
#964=DIRECTION('',(-1.95921710227969E-15,-1.,0.));
#965=DIRECTION('',(1.,-1.95676808090184E-15,0.));
#966=DIRECTION('',(-1.,2.00556417351641E-15,0.));
#967=DIRECTION('',(-1.95921710227969E-15,-1.,0.));
#968=DIRECTION('',(-1.,2.00556417351641E-15,0.));
#969=DIRECTION('',(-1.95921710227969E-15,-1.,0.));
#970=CARTESIAN_POINT('',(0.,0.,0.));
#971=CARTESIAN_POINT('',(66.2499999999999,-42.5,5.));
#972=CARTESIAN_POINT('',(66.2499999999998,-42.5,5.));
#973=CARTESIAN_POINT('',(66.2499999999999,45.,5.));
#974=CARTESIAN_POINT('',(66.25,4.99999999999999,-70.));
#975=CARTESIAN_POINT('',(66.2499999999999,5.00000000000002,15.));
#976=CARTESIAN_POINT('',(66.2499999999999,-42.5,15.));
#977=CARTESIAN_POINT('',(66.2499999999998,-42.5,15.));
#978=CARTESIAN_POINT('',(66.2499999999998,-42.5,15.));
#979=CARTESIAN_POINT('',(66.2499999999999,-42.5,15.));
#980=CARTESIAN_POINT('',(61.2499999999998,45.,15.));
#981=CARTESIAN_POINT('',(61.2499999999999,5.00000000000002,15.));
#982=CARTESIAN_POINT('',(61.2499999999998,-42.5,15.));
#983=CARTESIAN_POINT('',(61.2499999999998,4.99999999999999,-70.));
#984=CARTESIAN_POINT('',(61.2499999999999,45.,5.));
#985=CARTESIAN_POINT('',(61.2499999999998,45.,5.));
#986=CARTESIAN_POINT('',(61.2499999999998,-42.5,5.));
#987=CARTESIAN_POINT('',(61.2499999999998,-42.5,15.));
#988=CARTESIAN_POINT('',(61.2499999999998,45.,15.));
#989=CARTESIAN_POINT('',(-61.2500000000001,-42.5,5.));
#990=CARTESIAN_POINT('',(-61.2500000000002,-42.5,5.));
#991=CARTESIAN_POINT('',(-61.25,45.,5.));
#992=CARTESIAN_POINT('',(-61.25,4.99999999999999,-70.));
#993=CARTESIAN_POINT('',(-61.25,4.99999999999999,15.));
#994=CARTESIAN_POINT('',(-61.2500000000001,-42.5,15.));
#995=CARTESIAN_POINT('',(-61.2500000000002,-42.5,15.));
#996=CARTESIAN_POINT('',(-61.2500000000002,-42.5,15.));
#997=CARTESIAN_POINT('',(-61.2500000000001,-42.5,15.));
#998=CARTESIAN_POINT('',(118.75,5.00000000000002,15.));
#999=CARTESIAN_POINT('',(61.2499999999998,-42.5,15.));
#1000=CARTESIAN_POINT('',(118.75,5.00000000000002,15.));
#1001=CARTESIAN_POINT('',(-66.2500000000002,5.00000000000002,15.));
#1002=CARTESIAN_POINT('',(-66.2500000000002,45.,15.));
#1003=CARTESIAN_POINT('',(-66.2500000000002,-42.5,15.));
#1004=CARTESIAN_POINT('',(-66.2500000000002,-42.4999999999997,15.));
#1005=CARTESIAN_POINT('',(-193.75,-42.4999999999997,15.));
#1006=CARTESIAN_POINT('',(-193.75,-42.4999999999997,15.));
#1007=CARTESIAN_POINT('',(-193.75,-47.4999999999996,15.));
#1008=CARTESIAN_POINT('',(-66.2500000000002,-47.4999999999998,15.));
#1009=CARTESIAN_POINT('',(-66.2500000000002,-47.4999999999995,15.));
#1010=CARTESIAN_POINT('',(-66.2500000000003,-134.999999999999,15.));
#1011=CARTESIAN_POINT('',(-66.2500000000003,-94.9999999999996,15.0000000000001));
#1012=CARTESIAN_POINT('',(118.75,-94.9999999999999,15.0000000000001));
#1013=CARTESIAN_POINT('',(-61.2500000000001,-94.9999999999996,15.0000000000001));
#1014=CARTESIAN_POINT('',(-61.2500000000001,-47.4999999999995,15.));
#1015=CARTESIAN_POINT('',(-61.2500000000002,-47.4999999999995,15.));
#1016=CARTESIAN_POINT('',(61.2499999999998,-47.4999999999997,15.));
#1017=CARTESIAN_POINT('',(61.2499999999998,-47.4999999999997,15.));
#1018=CARTESIAN_POINT('',(61.2499999999996,-135.,15.));
#1019=CARTESIAN_POINT('',(61.2499999999997,-94.9999999999997,15.));
#1020=CARTESIAN_POINT('',(118.75,-94.9999999999999,15.0000000000001));
#1021=CARTESIAN_POINT('',(66.2499999999999,-94.9999999999998,15.0000000000001));
#1022=CARTESIAN_POINT('',(66.2499999999999,-47.4999999999998,15.));
#1023=CARTESIAN_POINT('',(66.2499999999998,-47.4999999999998,15.));
#1024=CARTESIAN_POINT('',(193.75,-47.5,15.));
#1025=CARTESIAN_POINT('',(193.75,-47.5,15.));
#1026=CARTESIAN_POINT('',(193.75,-45.,15.));
#1027=CARTESIAN_POINT('',(193.75,-42.5,15.));
#1028=CARTESIAN_POINT('',(193.75,-42.5,15.));
#1029=CARTESIAN_POINT('',(0.,0.,15.));
#1030=CARTESIAN_POINT('',(193.75,-47.5,15.));
#1031=CARTESIAN_POINT('',(193.75,-47.5,5.));
#1032=CARTESIAN_POINT('',(193.75,-135.000000000002,5.));
#1033=CARTESIAN_POINT('',(193.75,-135.,5.));
#1034=CARTESIAN_POINT('',(193.75,-135.,5.));
#1035=CARTESIAN_POINT('',(193.75,-135.,0.));
#1036=CARTESIAN_POINT('',(193.75,-44.9999999999984,0.));
#1037=CARTESIAN_POINT('',(193.75,45.0000000000017,0.));
#1038=CARTESIAN_POINT('',(193.75,45.0000000000017,5.));
#1039=CARTESIAN_POINT('',(193.75,45.0000000000017,5.));
#1040=CARTESIAN_POINT('',(193.75,-44.9999999999984,5.));
#1041=CARTESIAN_POINT('',(193.75,-42.5,5.));
#1042=CARTESIAN_POINT('',(193.75,-42.5,15.));
#1043=CARTESIAN_POINT('',(193.75,-45.,15.));
#1044=CARTESIAN_POINT('',(193.75,-42.5,5.));
#1045=CARTESIAN_POINT('',(193.75,-42.5,15.));
#1046=CARTESIAN_POINT('',(61.2499999999998,-42.5,5.));
#1047=CARTESIAN_POINT('',(61.2499999999998,-42.5,15.));
#1048=CARTESIAN_POINT('',(-66.2500000000002,4.99999999999999,-70.));
#1049=CARTESIAN_POINT('',(-66.2500000000002,45.,5.));
#1050=CARTESIAN_POINT('',(-66.2500000000002,45.,5.));
#1051=CARTESIAN_POINT('',(-66.2500000000002,-42.5,5.));
#1052=CARTESIAN_POINT('',(-66.2500000000002,-42.5,15.));
#1053=CARTESIAN_POINT('',(-66.2500000000002,45.,15.));
#1054=CARTESIAN_POINT('',(-66.2500000000002,-42.4999999999997,5.));
#1055=CARTESIAN_POINT('',(-193.75,-42.4999999999999,5.));
#1056=CARTESIAN_POINT('',(-193.75,-42.4999999999997,15.));
#1057=CARTESIAN_POINT('',(-66.2500000000002,-42.4999999999997,15.));
#1058=CARTESIAN_POINT('',(-193.75,45.0000000000009,5.));
#1059=CARTESIAN_POINT('',(-193.75,45.0000000000009,5.));
#1060=CARTESIAN_POINT('',(-193.75,45.0000000000009,5.));
#1061=CARTESIAN_POINT('',(-193.75,45.0000000000009,0.));
#1062=CARTESIAN_POINT('',(-193.75,45.0000000000009,0.));
#1063=CARTESIAN_POINT('',(-193.75,-135.,0.));
#1064=CARTESIAN_POINT('',(-193.75,-135.,5.));
#1065=CARTESIAN_POINT('',(-193.75,-135.,5.));
#1066=CARTESIAN_POINT('',(-193.75,-44.9999999999993,5.));
#1067=CARTESIAN_POINT('',(-193.75,-47.4999999999995,5.));
#1068=CARTESIAN_POINT('',(-193.75,-47.4999999999996,15.));
#1069=CARTESIAN_POINT('',(-193.75,-42.4999999999997,15.));
#1070=CARTESIAN_POINT('',(-61.2499999999999,45.,5.));
#1071=CARTESIAN_POINT('',(118.75,4.99999999999999,-70.));
#1072=CARTESIAN_POINT('',(66.2500000000001,45.,5.));
#1073=CARTESIAN_POINT('',(118.75,4.99999999999999,-70.));
#1074=CARTESIAN_POINT('',(193.75,45.,5.));
#1075=CARTESIAN_POINT('',(0.,0.,5.));
#1076=CARTESIAN_POINT('',(193.75,45.,5.));
#1077=CARTESIAN_POINT('',(0.,0.,5.));
#1078=CARTESIAN_POINT('',(193.75,45.,5.));
#1079=CARTESIAN_POINT('',(0.,0.,5.));
#1080=CARTESIAN_POINT('',(193.75,45.,0.));
#1081=CARTESIAN_POINT('',(193.75,45.,5.));
#1082=CARTESIAN_POINT('',(-193.75,-134.999999999999,0.));
#1083=CARTESIAN_POINT('',(0.,0.,0.));
#1084=CARTESIAN_POINT('',(193.75,-47.5,5.));
#1085=CARTESIAN_POINT('',(66.2499999999998,-47.4999999999998,5.));
#1086=CARTESIAN_POINT('',(66.2499999999999,-47.4999999999998,5.));
#1087=CARTESIAN_POINT('',(66.2499999999999,-135.,5.00000000000003));
#1088=CARTESIAN_POINT('',(-193.75,-134.999999999999,5.));
#1089=CARTESIAN_POINT('',(0.,0.,5.));
#1090=CARTESIAN_POINT('',(-193.75,-134.999999999999,5.));
#1091=CARTESIAN_POINT('',(-61.2500000000001,-134.999999999999,5.));
#1092=CARTESIAN_POINT('',(61.2499999999999,-135.,5.00000000000003));
#1093=CARTESIAN_POINT('',(61.2499999999996,-135.,5.));
#1094=CARTESIAN_POINT('',(61.2499999999998,-47.4999999999997,5.));
#1095=CARTESIAN_POINT('',(61.2499999999998,-47.4999999999997,5.));
#1096=CARTESIAN_POINT('',(-61.2500000000002,-47.4999999999995,5.));
#1097=CARTESIAN_POINT('',(-61.2500000000001,-47.4999999999995,5.));
#1098=CARTESIAN_POINT('',(0.,0.,5.));
#1099=CARTESIAN_POINT('',(-193.75,-134.999999999999,5.));
#1100=CARTESIAN_POINT('',(-66.2500000000004,-135.,5.00000000000003));
#1101=CARTESIAN_POINT('',(-66.2500000000003,-134.999999999999,5.));
#1102=CARTESIAN_POINT('',(-66.2500000000002,-47.4999999999995,5.));
#1103=CARTESIAN_POINT('',(-66.2500000000002,-47.4999999999998,5.));
#1104=CARTESIAN_POINT('',(0.,0.,5.));
#1105=CARTESIAN_POINT('',(66.2499999999999,-135.,5.));
#1106=CARTESIAN_POINT('',(-61.2500000000001,-135.,5.));
#1107=CARTESIAN_POINT('',(-193.75,-134.999999999999,5.));
#1108=CARTESIAN_POINT('',(66.2499999999999,-94.9999999999998,-70.));
#1109=CARTESIAN_POINT('',(66.2499999999998,-47.4999999999998,15.));
#1110=CARTESIAN_POINT('',(66.2499999999999,-47.4999999999998,15.));
#1111=CARTESIAN_POINT('',(61.2499999999997,-94.9999999999998,-70.));
#1112=CARTESIAN_POINT('',(61.2499999999998,-47.4999999999997,15.));
#1113=CARTESIAN_POINT('',(61.2499999999996,-135.,15.));
#1114=CARTESIAN_POINT('',(-61.2500000000001,-94.9999999999995,-70.));
#1115=CARTESIAN_POINT('',(-61.2500000000002,-47.4999999999995,15.));
#1116=CARTESIAN_POINT('',(-61.2500000000001,-47.4999999999995,15.));
#1117=CARTESIAN_POINT('',(-66.2500000000003,-94.9999999999995,-70.));
#1118=CARTESIAN_POINT('',(-66.2500000000002,-47.4999999999995,15.));
#1119=CARTESIAN_POINT('',(-66.2500000000003,-134.999999999999,15.));
#1120=CARTESIAN_POINT('',(193.75,-47.5,15.));
#1121=CARTESIAN_POINT('',(61.2499999999998,-47.4999999999997,15.));
#1122=CARTESIAN_POINT('',(-66.2500000000002,-47.4999999999998,15.));
#1123=CARTESIAN_POINT('',(118.75,-94.9999999999999,-70.));
#1124=CARTESIAN_POINT('',(118.75,-94.9999999999999,-70.));
#1125=MECHANICAL_DESIGN_GEOMETRIC_PRESENTATION_REPRESENTATION('',(#54,#23,
#24,#25,#26,#27,#28,#29,#30,#31,#32,#33,#34,#35,#36,#37,#38,#39,#40,#41,
#42,#43,#44,#45,#46,#47,#48,#49,#50,#51,#52),#1126);
#1126=(
GEOMETRIC_REPRESENTATION_CONTEXT(3)
GLOBAL_UNCERTAINTY_ASSIGNED_CONTEXT((#1127))
GLOBAL_UNIT_ASSIGNED_CONTEXT((#1133,#1129,#1128))
REPRESENTATION_CONTEXT('BandejaOK_2','TOP_LEVEL_ASSEMBLY_PART')
);
#1127=UNCERTAINTY_MEASURE_WITH_UNIT(LENGTH_MEASURE(2.E-5),#1133,
'DISTANCE_ACCURACY_VALUE','Maximum Tolerance applied to model');
#1128=(
NAMED_UNIT(*)
SI_UNIT($,.STERADIAN.)
SOLID_ANGLE_UNIT()
);
#1129=(
CONVERSION_BASED_UNIT('DEGREE',#1131)
NAMED_UNIT(#1130)
PLANE_ANGLE_UNIT()
);
#1130=DIMENSIONAL_EXPONENTS(0.,0.,0.,0.,0.,0.,0.);
#1131=PLANE_ANGLE_MEASURE_WITH_UNIT(PLANE_ANGLE_MEASURE(0.0174532925),#1132);
#1132=(
NAMED_UNIT(*)
PLANE_ANGLE_UNIT()
SI_UNIT($,.RADIAN.)
);
#1133=(
LENGTH_UNIT()
NAMED_UNIT(*)
SI_UNIT(.MILLI.,.METRE.)
);
ENDSEC;
END-ISO-10303-21;
