ISO-10303-21;
HEADER;
/* Generated by software containing ST-Developer
 * from STEP Tools, Inc. (www.steptools.com) 
 */
/* OPTION: using custom schema-name function */

FILE_DESCRIPTION(
/* description */ (''),
/* implementation_level */ '2;1');

FILE_NAME(
/* name */ 'mesa escaner.stp',
/* time_stamp */ '2026-05-11T11:56:05+02:00',
/* author */ (''),
/* organization */ (''),
/* preprocessor_version */ 'ST-DEVELOPER v19.3',
/* originating_system */ 'SIEMENS PLM Software NX2212.5000',
/* authorisation */ '');

FILE_SCHEMA (('AUTOMOTIVE_DESIGN { 1 0 10303 214 3 1 1 1 }'));
ENDSEC;

DATA;
#10=SHAPE_REPRESENTATION_RELATIONSHIP('None',
'relationship between mesa escaner-None and mesa escaner-None',#22,#11);
#11=ADVANCED_BREP_SHAPE_REPRESENTATION('mesa escaner-None',(#80,#81,#82,
#83,#84),#407);
#12=SHAPE_DEFINITION_REPRESENTATION(#13,#22);
#13=PRODUCT_DEFINITION_SHAPE('','',#14);
#14=PRODUCT_DEFINITION(' ','',#16,#15);
#15=PRODUCT_DEFINITION_CONTEXT('part definition',#21,'design');
#16=PRODUCT_DEFINITION_FORMATION_WITH_SPECIFIED_SOURCE(' ',' ',#18,
 .NOT_KNOWN.);
#17=PRODUCT_RELATED_PRODUCT_CATEGORY('part','',(#18));
#18=PRODUCT('mesa escaner','mesa escaner',' ',(#19));
#19=PRODUCT_CONTEXT(' ',#21,'mechanical');
#20=APPLICATION_PROTOCOL_DEFINITION('international standard',
'automotive_design',2010,#21);
#21=APPLICATION_CONTEXT(
'core data for automotive mechanical design processes');
#22=SHAPE_REPRESENTATION('mesa escaner-None',(#258),#407);
#23=CYLINDRICAL_SURFACE('',#267,7.5);
#24=CYLINDRICAL_SURFACE('',#272,7.5);
#25=CYLINDRICAL_SURFACE('',#277,7.5);
#26=CYLINDRICAL_SURFACE('',#282,7.5);
#27=FACE_BOUND('',#142,.T.);
#28=FACE_BOUND('',#143,.T.);
#29=FACE_BOUND('',#146,.T.);
#30=FACE_BOUND('',#147,.T.);
#31=FACE_BOUND('',#150,.T.);
#32=FACE_BOUND('',#151,.T.);
#33=FACE_BOUND('',#154,.T.);
#34=FACE_BOUND('',#155,.T.);
#35=CIRCLE('',#265,7.5);
#36=CIRCLE('',#266,7.5);
#37=CIRCLE('',#270,7.5);
#38=CIRCLE('',#271,7.5);
#39=CIRCLE('',#275,7.5);
#40=CIRCLE('',#276,7.5);
#41=CIRCLE('',#280,7.5);
#42=CIRCLE('',#281,7.5);
#43=PRESENTATION_LAYER_ASSIGNMENT('1','Layer 1',(#80,#81,#82,#83,#84));
#44=STYLED_ITEM('',(#49),#80);
#45=STYLED_ITEM('',(#50),#81);
#46=STYLED_ITEM('',(#51),#82);
#47=STYLED_ITEM('',(#52),#83);
#48=STYLED_ITEM('',(#53),#84);
#49=PRESENTATION_STYLE_ASSIGNMENT((#54));
#50=PRESENTATION_STYLE_ASSIGNMENT((#55));
#51=PRESENTATION_STYLE_ASSIGNMENT((#56));
#52=PRESENTATION_STYLE_ASSIGNMENT((#57));
#53=PRESENTATION_STYLE_ASSIGNMENT((#58));
#54=SURFACE_STYLE_USAGE(.BOTH.,#59);
#55=SURFACE_STYLE_USAGE(.BOTH.,#60);
#56=SURFACE_STYLE_USAGE(.BOTH.,#61);
#57=SURFACE_STYLE_USAGE(.BOTH.,#62);
#58=SURFACE_STYLE_USAGE(.BOTH.,#63);
#59=SURFACE_SIDE_STYLE('',(#64));
#60=SURFACE_SIDE_STYLE('',(#65));
#61=SURFACE_SIDE_STYLE('',(#66));
#62=SURFACE_SIDE_STYLE('',(#67));
#63=SURFACE_SIDE_STYLE('',(#68));
#64=SURFACE_STYLE_FILL_AREA(#69);
#65=SURFACE_STYLE_FILL_AREA(#70);
#66=SURFACE_STYLE_FILL_AREA(#71);
#67=SURFACE_STYLE_FILL_AREA(#72);
#68=SURFACE_STYLE_FILL_AREA(#73);
#69=FILL_AREA_STYLE('',(#74));
#70=FILL_AREA_STYLE('',(#75));
#71=FILL_AREA_STYLE('',(#76));
#72=FILL_AREA_STYLE('',(#77));
#73=FILL_AREA_STYLE('',(#78));
#74=FILL_AREA_STYLE_COLOUR('',#79);
#75=FILL_AREA_STYLE_COLOUR('',#79);
#76=FILL_AREA_STYLE_COLOUR('',#79);
#77=FILL_AREA_STYLE_COLOUR('',#79);
#78=FILL_AREA_STYLE_COLOUR('',#79);
#79=COLOUR_RGB('medium steel',0.611764705882353,0.658823529411765,0.670588235294118);
#80=MANIFOLD_SOLID_BREP('',#85);
#81=MANIFOLD_SOLID_BREP('',#86);
#82=MANIFOLD_SOLID_BREP('',#87);
#83=MANIFOLD_SOLID_BREP('',#88);
#84=MANIFOLD_SOLID_BREP('',#89);
#85=CLOSED_SHELL('',(#90,#91,#92,#93,#94,#95));
#86=CLOSED_SHELL('',(#96,#97,#98));
#87=CLOSED_SHELL('',(#99,#100,#101));
#88=CLOSED_SHELL('',(#102,#103,#104));
#89=CLOSED_SHELL('',(#105,#106,#107));
#90=ADVANCED_FACE('',(#122),#108,.F.);
#91=ADVANCED_FACE('',(#123),#109,.F.);
#92=ADVANCED_FACE('',(#124),#110,.F.);
#93=ADVANCED_FACE('',(#125),#111,.T.);
#94=ADVANCED_FACE('',(#126),#112,.F.);
#95=ADVANCED_FACE('',(#127),#113,.F.);
#96=ADVANCED_FACE('',(#27,#28),#23,.T.);
#97=ADVANCED_FACE('',(#128),#114,.T.);
#98=ADVANCED_FACE('',(#129),#115,.F.);
#99=ADVANCED_FACE('',(#29,#30),#24,.T.);
#100=ADVANCED_FACE('',(#130),#116,.T.);
#101=ADVANCED_FACE('',(#131),#117,.F.);
#102=ADVANCED_FACE('',(#31,#32),#25,.T.);
#103=ADVANCED_FACE('',(#132),#118,.F.);
#104=ADVANCED_FACE('',(#133),#119,.T.);
#105=ADVANCED_FACE('',(#33,#34),#26,.T.);
#106=ADVANCED_FACE('',(#134),#120,.F.);
#107=ADVANCED_FACE('',(#135),#121,.T.);
#108=PLANE('',#259);
#109=PLANE('',#260);
#110=PLANE('',#261);
#111=PLANE('',#262);
#112=PLANE('',#263);
#113=PLANE('',#264);
#114=PLANE('',#268);
#115=PLANE('',#269);
#116=PLANE('',#273);
#117=PLANE('',#274);
#118=PLANE('',#278);
#119=PLANE('',#279);
#120=PLANE('',#283);
#121=PLANE('',#284);
#122=FACE_OUTER_BOUND('',#136,.T.);
#123=FACE_OUTER_BOUND('',#137,.T.);
#124=FACE_OUTER_BOUND('',#138,.T.);
#125=FACE_OUTER_BOUND('',#139,.T.);
#126=FACE_OUTER_BOUND('',#140,.T.);
#127=FACE_OUTER_BOUND('',#141,.T.);
#128=FACE_OUTER_BOUND('',#144,.T.);
#129=FACE_OUTER_BOUND('',#145,.T.);
#130=FACE_OUTER_BOUND('',#148,.T.);
#131=FACE_OUTER_BOUND('',#149,.T.);
#132=FACE_OUTER_BOUND('',#152,.T.);
#133=FACE_OUTER_BOUND('',#153,.T.);
#134=FACE_OUTER_BOUND('',#156,.T.);
#135=FACE_OUTER_BOUND('',#157,.T.);
#136=EDGE_LOOP('',(#158,#159,#160,#161));
#137=EDGE_LOOP('',(#162,#163,#164,#165));
#138=EDGE_LOOP('',(#166,#167,#168,#169));
#139=EDGE_LOOP('',(#170,#171,#172,#173));
#140=EDGE_LOOP('',(#174,#175,#176,#177));
#141=EDGE_LOOP('',(#178,#179,#180,#181));
#142=EDGE_LOOP('',(#182));
#143=EDGE_LOOP('',(#183));
#144=EDGE_LOOP('',(#184));
#145=EDGE_LOOP('',(#185));
#146=EDGE_LOOP('',(#186));
#147=EDGE_LOOP('',(#187));
#148=EDGE_LOOP('',(#188));
#149=EDGE_LOOP('',(#189));
#150=EDGE_LOOP('',(#190));
#151=EDGE_LOOP('',(#191));
#152=EDGE_LOOP('',(#192));
#153=EDGE_LOOP('',(#193));
#154=EDGE_LOOP('',(#194));
#155=EDGE_LOOP('',(#195));
#156=EDGE_LOOP('',(#196));
#157=EDGE_LOOP('',(#197));
#158=ORIENTED_EDGE('',*,*,#214,.T.);
#159=ORIENTED_EDGE('',*,*,#215,.F.);
#160=ORIENTED_EDGE('',*,*,#216,.F.);
#161=ORIENTED_EDGE('',*,*,#217,.T.);
#162=ORIENTED_EDGE('',*,*,#218,.T.);
#163=ORIENTED_EDGE('',*,*,#219,.F.);
#164=ORIENTED_EDGE('',*,*,#220,.F.);
#165=ORIENTED_EDGE('',*,*,#215,.T.);
#166=ORIENTED_EDGE('',*,*,#221,.T.);
#167=ORIENTED_EDGE('',*,*,#222,.F.);
#168=ORIENTED_EDGE('',*,*,#223,.F.);
#169=ORIENTED_EDGE('',*,*,#219,.T.);
#170=ORIENTED_EDGE('',*,*,#223,.T.);
#171=ORIENTED_EDGE('',*,*,#224,.F.);
#172=ORIENTED_EDGE('',*,*,#216,.T.);
#173=ORIENTED_EDGE('',*,*,#220,.T.);
#174=ORIENTED_EDGE('',*,*,#214,.F.);
#175=ORIENTED_EDGE('',*,*,#225,.T.);
#176=ORIENTED_EDGE('',*,*,#221,.F.);
#177=ORIENTED_EDGE('',*,*,#218,.F.);
#178=ORIENTED_EDGE('',*,*,#225,.F.);
#179=ORIENTED_EDGE('',*,*,#217,.F.);
#180=ORIENTED_EDGE('',*,*,#224,.T.);
#181=ORIENTED_EDGE('',*,*,#222,.T.);
#182=ORIENTED_EDGE('',*,*,#226,.F.);
#183=ORIENTED_EDGE('',*,*,#227,.T.);
#184=ORIENTED_EDGE('',*,*,#226,.T.);
#185=ORIENTED_EDGE('',*,*,#227,.F.);
#186=ORIENTED_EDGE('',*,*,#228,.F.);
#187=ORIENTED_EDGE('',*,*,#229,.T.);
#188=ORIENTED_EDGE('',*,*,#228,.T.);
#189=ORIENTED_EDGE('',*,*,#229,.F.);
#190=ORIENTED_EDGE('',*,*,#230,.T.);
#191=ORIENTED_EDGE('',*,*,#231,.F.);
#192=ORIENTED_EDGE('',*,*,#230,.F.);
#193=ORIENTED_EDGE('',*,*,#231,.T.);
#194=ORIENTED_EDGE('',*,*,#232,.T.);
#195=ORIENTED_EDGE('',*,*,#233,.F.);
#196=ORIENTED_EDGE('',*,*,#232,.F.);
#197=ORIENTED_EDGE('',*,*,#233,.T.);
#198=VERTEX_POINT('',#353);
#199=VERTEX_POINT('',#354);
#200=VERTEX_POINT('',#356);
#201=VERTEX_POINT('',#358);
#202=VERTEX_POINT('',#362);
#203=VERTEX_POINT('',#364);
#204=VERTEX_POINT('',#368);
#205=VERTEX_POINT('',#370);
#206=VERTEX_POINT('',#379);
#207=VERTEX_POINT('',#381);
#208=VERTEX_POINT('',#386);
#209=VERTEX_POINT('',#388);
#210=VERTEX_POINT('',#393);
#211=VERTEX_POINT('',#395);
#212=VERTEX_POINT('',#400);
#213=VERTEX_POINT('',#402);
#214=EDGE_CURVE('',#198,#199,#234,.T.);
#215=EDGE_CURVE('',#200,#199,#235,.T.);
#216=EDGE_CURVE('',#201,#200,#236,.T.);
#217=EDGE_CURVE('',#201,#198,#237,.T.);
#218=EDGE_CURVE('',#199,#202,#238,.T.);
#219=EDGE_CURVE('',#203,#202,#239,.T.);
#220=EDGE_CURVE('',#200,#203,#240,.T.);
#221=EDGE_CURVE('',#202,#204,#241,.T.);
#222=EDGE_CURVE('',#205,#204,#242,.T.);
#223=EDGE_CURVE('',#203,#205,#243,.T.);
#224=EDGE_CURVE('',#201,#205,#244,.T.);
#225=EDGE_CURVE('',#198,#204,#245,.T.);
#226=EDGE_CURVE('',#206,#206,#35,.T.);
#227=EDGE_CURVE('',#207,#207,#36,.T.);
#228=EDGE_CURVE('',#208,#208,#37,.T.);
#229=EDGE_CURVE('',#209,#209,#38,.T.);
#230=EDGE_CURVE('',#210,#210,#39,.T.);
#231=EDGE_CURVE('',#211,#211,#40,.T.);
#232=EDGE_CURVE('',#212,#212,#41,.T.);
#233=EDGE_CURVE('',#213,#213,#42,.T.);
#234=LINE('',#352,#246);
#235=LINE('',#355,#247);
#236=LINE('',#357,#248);
#237=LINE('',#359,#249);
#238=LINE('',#361,#250);
#239=LINE('',#363,#251);
#240=LINE('',#365,#252);
#241=LINE('',#367,#253);
#242=LINE('',#369,#254);
#243=LINE('',#371,#255);
#244=LINE('',#373,#256);
#245=LINE('',#375,#257);
#246=VECTOR('',#287,1.);
#247=VECTOR('',#288,1.);
#248=VECTOR('',#289,1.);
#249=VECTOR('',#290,1.);
#250=VECTOR('',#293,1.);
#251=VECTOR('',#294,1.);
#252=VECTOR('',#295,1.);
#253=VECTOR('',#298,1.);
#254=VECTOR('',#299,1.);
#255=VECTOR('',#300,1.);
#256=VECTOR('',#303,1.);
#257=VECTOR('',#306,1.);
#258=AXIS2_PLACEMENT_3D('',#351,#285,#286);
#259=AXIS2_PLACEMENT_3D('',#360,#291,#292);
#260=AXIS2_PLACEMENT_3D('',#366,#296,#297);
#261=AXIS2_PLACEMENT_3D('',#372,#301,#302);
#262=AXIS2_PLACEMENT_3D('',#374,#304,#305);
#263=AXIS2_PLACEMENT_3D('',#376,#307,#308);
#264=AXIS2_PLACEMENT_3D('',#377,#309,#310);
#265=AXIS2_PLACEMENT_3D('',#378,#311,#312);
#266=AXIS2_PLACEMENT_3D('',#380,#313,#314);
#267=AXIS2_PLACEMENT_3D('',#382,#315,#316);
#268=AXIS2_PLACEMENT_3D('',#383,#317,#318);
#269=AXIS2_PLACEMENT_3D('',#384,#319,#320);
#270=AXIS2_PLACEMENT_3D('',#385,#321,#322);
#271=AXIS2_PLACEMENT_3D('',#387,#323,#324);
#272=AXIS2_PLACEMENT_3D('',#389,#325,#326);
#273=AXIS2_PLACEMENT_3D('',#390,#327,#328);
#274=AXIS2_PLACEMENT_3D('',#391,#329,#330);
#275=AXIS2_PLACEMENT_3D('',#392,#331,#332);
#276=AXIS2_PLACEMENT_3D('',#394,#333,#334);
#277=AXIS2_PLACEMENT_3D('',#396,#335,#336);
#278=AXIS2_PLACEMENT_3D('',#397,#337,#338);
#279=AXIS2_PLACEMENT_3D('',#398,#339,#340);
#280=AXIS2_PLACEMENT_3D('',#399,#341,#342);
#281=AXIS2_PLACEMENT_3D('',#401,#343,#344);
#282=AXIS2_PLACEMENT_3D('',#403,#345,#346);
#283=AXIS2_PLACEMENT_3D('',#404,#347,#348);
#284=AXIS2_PLACEMENT_3D('',#405,#349,#350);
#285=DIRECTION('',(0.,0.,1.));
#286=DIRECTION('',(1.,0.,0.));
#287=DIRECTION('',(1.,-1.02257383847055E-15,0.));
#288=DIRECTION('',(0.,0.,-1.));
#289=DIRECTION('',(1.,-1.02257383847055E-15,0.));
#290=DIRECTION('',(0.,0.,-1.));
#291=DIRECTION('',(1.02257383847055E-15,1.,0.));
#292=DIRECTION('',(-1.,1.02695629777827E-15,0.));
#293=DIRECTION('',(3.72509041157125E-15,1.,0.));
#294=DIRECTION('',(0.,0.,-1.));
#295=DIRECTION('',(3.72509041157125E-15,1.,0.));
#296=DIRECTION('',(-1.,3.72509041157125E-15,0.));
#297=DIRECTION('',(-3.71924713249427E-15,-1.,0.));
#298=DIRECTION('',(-1.,0.,0.));
#299=DIRECTION('',(0.,0.,-1.));
#300=DIRECTION('',(-1.,0.,0.));
#301=DIRECTION('',(0.,-1.,0.));
#302=DIRECTION('',(0.,0.,-1.));
#303=DIRECTION('',(-1.38777878078145E-15,1.,0.));
#304=DIRECTION('',(0.,0.,1.));
#305=DIRECTION('',(1.,0.,0.));
#306=DIRECTION('',(-1.38777878078145E-15,1.,0.));
#307=DIRECTION('',(0.,0.,1.));
#308=DIRECTION('',(1.,0.,0.));
#309=DIRECTION('',(1.,1.38777878078145E-15,0.));
#310=DIRECTION('',(-1.38777878078145E-15,1.,0.));
#311=DIRECTION('',(0.,0.,1.));
#312=DIRECTION('',(1.,0.,0.));
#313=DIRECTION('',(0.,0.,1.));
#314=DIRECTION('',(1.,0.,0.));
#315=DIRECTION('',(0.,0.,-1.));
#316=DIRECTION('',(-1.,0.,0.));
#317=DIRECTION('',(0.,0.,1.));
#318=DIRECTION('',(1.,0.,0.));
#319=DIRECTION('',(0.,0.,1.));
#320=DIRECTION('',(1.,0.,0.));
#321=DIRECTION('',(0.,0.,1.));
#322=DIRECTION('',(1.,0.,0.));
#323=DIRECTION('',(0.,0.,1.));
#324=DIRECTION('',(1.,0.,0.));
#325=DIRECTION('',(0.,0.,-1.));
#326=DIRECTION('',(-1.,0.,0.));
#327=DIRECTION('',(0.,0.,1.));
#328=DIRECTION('',(1.,0.,0.));
#329=DIRECTION('',(0.,0.,1.));
#330=DIRECTION('',(1.,0.,0.));
#331=DIRECTION('',(0.,0.,-1.));
#332=DIRECTION('',(-1.,0.,0.));
#333=DIRECTION('',(0.,0.,-1.));
#334=DIRECTION('',(-1.,0.,0.));
#335=DIRECTION('',(0.,0.,-1.));
#336=DIRECTION('',(-1.,0.,0.));
#337=DIRECTION('',(0.,0.,-1.));
#338=DIRECTION('',(-1.,0.,0.));
#339=DIRECTION('',(0.,0.,-1.));
#340=DIRECTION('',(-1.,0.,0.));
#341=DIRECTION('',(0.,0.,-1.));
#342=DIRECTION('',(-0.999999999999999,0.,0.));
#343=DIRECTION('',(0.,0.,-1.));
#344=DIRECTION('',(-0.999999999999999,0.,0.));
#345=DIRECTION('',(0.,0.,-1.));
#346=DIRECTION('',(-0.999999999999999,0.,0.));
#347=DIRECTION('',(0.,0.,-1.));
#348=DIRECTION('',(-1.,0.,0.));
#349=DIRECTION('',(0.,0.,-1.));
#350=DIRECTION('',(-1.,0.,0.));
#351=CARTESIAN_POINT('',(0.,0.,0.));
#352=CARTESIAN_POINT('',(0.,-94.9999999999999,720.));
#353=CARTESIAN_POINT('',(-94.9999999999995,-94.9999999999998,720.));
#354=CARTESIAN_POINT('',(94.9999999999993,-95.,720.));
#355=CARTESIAN_POINT('',(94.9999999999993,-95.,750.));
#356=CARTESIAN_POINT('',(94.9999999999993,-95.,750.));
#357=CARTESIAN_POINT('',(0.,-94.9999999999999,750.));
#358=CARTESIAN_POINT('',(-94.9999999999995,-94.9999999999998,750.));
#359=CARTESIAN_POINT('',(-94.9999999999995,-94.9999999999998,750.));
#360=CARTESIAN_POINT('',(0.,-94.9999999999999,750.));
#361=CARTESIAN_POINT('',(94.9999999999993,-95.,720.));
#362=CARTESIAN_POINT('',(95.,95.,720.));
#363=CARTESIAN_POINT('',(95.,95.,750.));
#364=CARTESIAN_POINT('',(95.,95.,750.));
#365=CARTESIAN_POINT('',(94.9999999999993,-95.,750.));
#366=CARTESIAN_POINT('',(94.9999999999993,-95.,750.));
#367=CARTESIAN_POINT('',(95.,95.,720.));
#368=CARTESIAN_POINT('',(-94.9999999999998,95.0000000000002,720.));
#369=CARTESIAN_POINT('',(-94.9999999999998,95.0000000000002,750.));
#370=CARTESIAN_POINT('',(-94.9999999999998,95.0000000000002,750.));
#371=CARTESIAN_POINT('',(95.,95.,750.));
#372=CARTESIAN_POINT('',(95.,95.,750.));
#373=CARTESIAN_POINT('',(-94.9999999999998,95.0000000000002,750.));
#374=CARTESIAN_POINT('',(0.,0.,750.));
#375=CARTESIAN_POINT('',(-94.9999999999998,95.0000000000002,720.));
#376=CARTESIAN_POINT('',(0.,0.,720.));
#377=CARTESIAN_POINT('',(-94.9999999999998,95.0000000000002,750.));
#378=CARTESIAN_POINT('',(72.9999999999997,-73.,732.));
#379=CARTESIAN_POINT('',(80.4999999999997,-73.,732.));
#380=CARTESIAN_POINT('',(72.9999999999997,-73.,0.));
#381=CARTESIAN_POINT('',(80.4999999999997,-73.,0.));
#382=CARTESIAN_POINT('',(72.9999999999997,-73.,732.));
#383=CARTESIAN_POINT('',(72.9999999999997,-73.,732.));
#384=CARTESIAN_POINT('',(72.9999999999997,-73.,0.));
#385=CARTESIAN_POINT('',(73.0000000000001,73.,732.));
#386=CARTESIAN_POINT('',(80.5000000000001,73.,732.));
#387=CARTESIAN_POINT('',(73.0000000000001,73.,0.));
#388=CARTESIAN_POINT('',(80.5000000000001,73.,0.));
#389=CARTESIAN_POINT('',(73.0000000000001,73.,732.));
#390=CARTESIAN_POINT('',(73.0000000000001,73.,732.));
#391=CARTESIAN_POINT('',(73.0000000000001,73.,0.));
#392=CARTESIAN_POINT('',(-72.9999999999999,-72.9999999999998,732.));
#393=CARTESIAN_POINT('',(-80.4999999999999,-72.9999999999998,732.));
#394=CARTESIAN_POINT('',(-72.9999999999999,-72.9999999999998,0.));
#395=CARTESIAN_POINT('',(-80.4999999999999,-72.9999999999998,0.));
#396=CARTESIAN_POINT('',(-72.9999999999999,-72.9999999999998,732.));
#397=CARTESIAN_POINT('',(-72.9999999999999,-72.9999999999998,732.));
#398=CARTESIAN_POINT('',(-72.9999999999999,-72.9999999999998,0.));
#399=CARTESIAN_POINT('',(-72.9999999999999,73.0000000000002,732.));
#400=CARTESIAN_POINT('',(-80.4999999999999,73.0000000000002,732.));
#401=CARTESIAN_POINT('',(-72.9999999999999,73.0000000000002,0.));
#402=CARTESIAN_POINT('',(-80.4999999999999,73.0000000000002,0.));
#403=CARTESIAN_POINT('',(-72.9999999999999,73.0000000000002,732.));
#404=CARTESIAN_POINT('',(-72.9999999999999,73.0000000000002,732.));
#405=CARTESIAN_POINT('',(-72.9999999999999,73.0000000000002,0.));
#406=MECHANICAL_DESIGN_GEOMETRIC_PRESENTATION_REPRESENTATION('',(#44,#45,
#46,#47,#48),#407);
#407=(
GEOMETRIC_REPRESENTATION_CONTEXT(3)
GLOBAL_UNCERTAINTY_ASSIGNED_CONTEXT((#408))
GLOBAL_UNIT_ASSIGNED_CONTEXT((#414,#410,#409))
REPRESENTATION_CONTEXT('mesa escaner','TOP_LEVEL_ASSEMBLY_PART')
);
#408=UNCERTAINTY_MEASURE_WITH_UNIT(LENGTH_MEASURE(2.E-5),#414,
'DISTANCE_ACCURACY_VALUE','Maximum Tolerance applied to model');
#409=(
NAMED_UNIT(*)
SI_UNIT($,.STERADIAN.)
SOLID_ANGLE_UNIT()
);
#410=(
CONVERSION_BASED_UNIT('DEGREE',#412)
NAMED_UNIT(#411)
PLANE_ANGLE_UNIT()
);
#411=DIMENSIONAL_EXPONENTS(0.,0.,0.,0.,0.,0.,0.);
#412=PLANE_ANGLE_MEASURE_WITH_UNIT(PLANE_ANGLE_MEASURE(0.0174532925),#413);
#413=(
NAMED_UNIT(*)
PLANE_ANGLE_UNIT()
SI_UNIT($,.RADIAN.)
);
#414=(
LENGTH_UNIT()
NAMED_UNIT(*)
SI_UNIT(.MILLI.,.METRE.)
);
ENDSEC;
END-ISO-10303-21;
