ISO-10303-21;
HEADER;
/* Generated by software containing ST-Developer
 * from STEP Tools, Inc. (www.steptools.com) 
 */
/* OPTION: using custom schema-name function */

FILE_DESCRIPTION(
/* description */ (''),
/* implementation_level */ '2;1');

FILE_NAME(
/* name */ 'Pieza.stp',
/* time_stamp */ '2026-05-11T11:45:21+02:00',
/* author */ (''),
/* organization */ (''),
/* preprocessor_version */ 'ST-DEVELOPER v19.3',
/* originating_system */ 'SIEMENS PLM Software NX2212.5000',
/* authorisation */ '');

FILE_SCHEMA (('AUTOMOTIVE_DESIGN { 1 0 10303 214 3 1 1 1 }'));
ENDSEC;

DATA;
#10=SHAPE_REPRESENTATION_RELATIONSHIP('None',
'relationship between Pieza-None and Pieza-None',#22,#11);
#11=ADVANCED_BREP_SHAPE_REPRESENTATION('Pieza-None',(#32),#689);
#12=SHAPE_DEFINITION_REPRESENTATION(#13,#22);
#13=PRODUCT_DEFINITION_SHAPE('','',#14);
#14=PRODUCT_DEFINITION(' ','',#16,#15);
#15=PRODUCT_DEFINITION_CONTEXT('part definition',#21,'design');
#16=PRODUCT_DEFINITION_FORMATION_WITH_SPECIFIED_SOURCE(' ',' ',#18,
 .NOT_KNOWN.);
#17=PRODUCT_RELATED_PRODUCT_CATEGORY('part','',(#18));
#18=PRODUCT('Pieza','Pieza',' ',(#19));
#19=PRODUCT_CONTEXT(' ',#21,'mechanical');
#20=APPLICATION_PROTOCOL_DEFINITION('international standard',
'automotive_design',2010,#21);
#21=APPLICATION_CONTEXT(
'core data for automotive mechanical design processes');
#22=SHAPE_REPRESENTATION('Pieza-None',(#421),#689);
#23=PRESENTATION_LAYER_ASSIGNMENT('1','Layer 1',(#32));
#24=STYLED_ITEM('',(#25),#32);
#25=PRESENTATION_STYLE_ASSIGNMENT((#26));
#26=SURFACE_STYLE_USAGE(.BOTH.,#27);
#27=SURFACE_SIDE_STYLE('',(#28));
#28=SURFACE_STYLE_FILL_AREA(#29);
#29=FILL_AREA_STYLE('',(#30));
#30=FILL_AREA_STYLE_COLOUR('',#31);
#31=COLOUR_RGB('medium steel',0.611764705882353,0.658823529411765,0.670588235294118);
#32=MANIFOLD_SOLID_BREP('',#33);
#33=CLOSED_SHELL('',(#53,#54,#55,#56,#57,#58,#59,#60,#61,#62,#63,#64,#65,
#66,#67,#68,#69,#70,#71,#72,#73,#74,#75,#76));
#34=CYLINDRICAL_SURFACE('',#429,14.);
#35=CYLINDRICAL_SURFACE('',#439,19.);
#36=CYLINDRICAL_SURFACE('',#443,11.);
#37=CYLINDRICAL_SURFACE('',#447,10.);
#38=CYLINDRICAL_SURFACE('',#448,5.);
#39=CYLINDRICAL_SURFACE('',#454,14.);
#40=CYLINDRICAL_SURFACE('',#460,10.);
#41=CYLINDRICAL_SURFACE('',#461,5.);
#42=FACE_OUTER_BOUND('',#188,.T.);
#43=FACE_OUTER_BOUND('',#189,.T.);
#44=FACE_OUTER_BOUND('',#190,.T.);
#45=FACE_OUTER_BOUND('',#191,.T.);
#46=FACE_OUTER_BOUND('',#197,.T.);
#47=FACE_OUTER_BOUND('',#208,.T.);
#48=FACE_OUTER_BOUND('',#209,.T.);
#49=FACE_OUTER_BOUND('',#212,.T.);
#50=FACE_OUTER_BOUND('',#213,.T.);
#51=FACE_OUTER_BOUND('',#214,.T.);
#52=FACE_OUTER_BOUND('',#221,.T.);
#53=ADVANCED_FACE('',(#157,#158),#77,.T.);
#54=ADVANCED_FACE('',(#159,#160),#78,.T.);
#55=ADVANCED_FACE('',(#42),#34,.T.);
#56=ADVANCED_FACE('',(#43),#79,.F.);
#57=ADVANCED_FACE('',(#44),#80,.F.);
#58=ADVANCED_FACE('',(#45),#81,.F.);
#59=ADVANCED_FACE('',(#161,#162,#163),#82,.F.);
#60=ADVANCED_FACE('',(#164,#165),#35,.T.);
#61=ADVANCED_FACE('',(#46),#83,.F.);
#62=ADVANCED_FACE('',(#166,#167),#84,.F.);
#63=ADVANCED_FACE('',(#168,#169),#36,.F.);
#64=ADVANCED_FACE('',(#170,#171),#85,.F.);
#65=ADVANCED_FACE('',(#172,#173),#37,.F.);
#66=ADVANCED_FACE('',(#174,#175),#38,.F.);
#67=ADVANCED_FACE('',(#47),#86,.T.);
#68=ADVANCED_FACE('',(#48),#87,.F.);
#69=ADVANCED_FACE('',(#176,#177),#88,.F.);
#70=ADVANCED_FACE('',(#49),#39,.T.);
#71=ADVANCED_FACE('',(#50),#89,.T.);
#72=ADVANCED_FACE('',(#51),#90,.T.);
#73=ADVANCED_FACE('',(#178,#179),#91,.F.);
#74=ADVANCED_FACE('',(#180,#181),#40,.F.);
#75=ADVANCED_FACE('',(#182,#183),#41,.F.);
#76=ADVANCED_FACE('',(#52),#92,.T.);
#77=PLANE('',#424);
#78=PLANE('',#427);
#79=PLANE('',#430);
#80=PLANE('',#432);
#81=PLANE('',#433);
#82=PLANE('',#437);
#83=PLANE('',#440);
#84=PLANE('',#442);
#85=PLANE('',#446);
#86=PLANE('',#449);
#87=PLANE('',#450);
#88=PLANE('',#453);
#89=PLANE('',#455);
#90=PLANE('',#456);
#91=PLANE('',#459);
#92=PLANE('',#462);
#93=LINE('',#582,#125);
#94=LINE('',#585,#126);
#95=LINE('',#587,#127);
#96=LINE('',#589,#128);
#97=LINE('',#595,#129);
#98=LINE('',#597,#130);
#99=LINE('',#599,#131);
#100=LINE('',#601,#132);
#101=LINE('',#603,#133);
#102=LINE('',#607,#134);
#103=LINE('',#612,#135);
#104=LINE('',#613,#136);
#105=LINE('',#615,#137);
#106=LINE('',#617,#138);
#107=LINE('',#619,#139);
#108=LINE('',#621,#140);
#109=LINE('',#623,#141);
#110=LINE('',#628,#142);
#111=LINE('',#630,#143);
#112=LINE('',#632,#144);
#113=LINE('',#634,#145);
#114=LINE('',#636,#146);
#115=LINE('',#637,#147);
#116=LINE('',#641,#148);
#117=LINE('',#649,#149);
#118=LINE('',#650,#150);
#119=LINE('',#664,#151);
#120=LINE('',#665,#152);
#121=LINE('',#670,#153);
#122=LINE('',#673,#154);
#123=LINE('',#675,#155);
#124=LINE('',#677,#156);
#125=VECTOR('',#467,1.);
#126=VECTOR('',#468,1.);
#127=VECTOR('',#469,1.);
#128=VECTOR('',#470,1.);
#129=VECTOR('',#477,1.);
#130=VECTOR('',#478,1.);
#131=VECTOR('',#479,1.);
#132=VECTOR('',#480,1.);
#133=VECTOR('',#481,1.);
#134=VECTOR('',#484,1.);
#135=VECTOR('',#489,1.);
#136=VECTOR('',#490,1.);
#137=VECTOR('',#493,1.);
#138=VECTOR('',#494,1.);
#139=VECTOR('',#495,1.);
#140=VECTOR('',#496,1.);
#141=VECTOR('',#499,1.);
#142=VECTOR('',#502,1.);
#143=VECTOR('',#503,1.);
#144=VECTOR('',#504,1.);
#145=VECTOR('',#505,1.);
#146=VECTOR('',#508,1.);
#147=VECTOR('',#509,1.);
#148=VECTOR('',#514,1.);
#149=VECTOR('',#523,1.);
#150=VECTOR('',#524,1.);
#151=VECTOR('',#545,1.);
#152=VECTOR('',#546,1.);
#153=VECTOR('',#553,1.);
#154=VECTOR('',#556,1.);
#155=VECTOR('',#559,1.);
#156=VECTOR('',#562,1.);
#157=FACE_BOUND('',#184,.T.);
#158=FACE_BOUND('',#185,.T.);
#159=FACE_BOUND('',#186,.T.);
#160=FACE_BOUND('',#187,.T.);
#161=FACE_BOUND('',#192,.T.);
#162=FACE_BOUND('',#193,.T.);
#163=FACE_BOUND('',#194,.T.);
#164=FACE_BOUND('',#195,.T.);
#165=FACE_BOUND('',#196,.T.);
#166=FACE_BOUND('',#198,.T.);
#167=FACE_BOUND('',#199,.T.);
#168=FACE_BOUND('',#200,.T.);
#169=FACE_BOUND('',#201,.T.);
#170=FACE_BOUND('',#202,.T.);
#171=FACE_BOUND('',#203,.T.);
#172=FACE_BOUND('',#204,.T.);
#173=FACE_BOUND('',#205,.T.);
#174=FACE_BOUND('',#206,.T.);
#175=FACE_BOUND('',#207,.T.);
#176=FACE_BOUND('',#210,.T.);
#177=FACE_BOUND('',#211,.T.);
#178=FACE_BOUND('',#215,.T.);
#179=FACE_BOUND('',#216,.T.);
#180=FACE_BOUND('',#217,.T.);
#181=FACE_BOUND('',#218,.T.);
#182=FACE_BOUND('',#219,.T.);
#183=FACE_BOUND('',#220,.T.);
#184=EDGE_LOOP('',(#222));
#185=EDGE_LOOP('',(#223,#224,#225,#226,#227));
#186=EDGE_LOOP('',(#228));
#187=EDGE_LOOP('',(#229,#230,#231,#232,#233,#234,#235,#236));
#188=EDGE_LOOP('',(#237,#238,#239,#240));
#189=EDGE_LOOP('',(#241,#242,#243,#244,#245,#246));
#190=EDGE_LOOP('',(#247,#248,#249,#250,#251,#252));
#191=EDGE_LOOP('',(#253,#254,#255,#256,#257));
#192=EDGE_LOOP('',(#258));
#193=EDGE_LOOP('',(#259,#260,#261,#262,#263,#264));
#194=EDGE_LOOP('',(#265));
#195=EDGE_LOOP('',(#266));
#196=EDGE_LOOP('',(#267,#268,#269,#270));
#197=EDGE_LOOP('',(#271,#272,#273,#274));
#198=EDGE_LOOP('',(#275));
#199=EDGE_LOOP('',(#276));
#200=EDGE_LOOP('',(#277));
#201=EDGE_LOOP('',(#278));
#202=EDGE_LOOP('',(#279));
#203=EDGE_LOOP('',(#280));
#204=EDGE_LOOP('',(#281));
#205=EDGE_LOOP('',(#282));
#206=EDGE_LOOP('',(#283));
#207=EDGE_LOOP('',(#284));
#208=EDGE_LOOP('',(#285,#286,#287,#288));
#209=EDGE_LOOP('',(#289,#290,#291));
#210=EDGE_LOOP('',(#292));
#211=EDGE_LOOP('',(#293,#294,#295,#296,#297));
#212=EDGE_LOOP('',(#298,#299,#300,#301));
#213=EDGE_LOOP('',(#302,#303,#304,#305,#306));
#214=EDGE_LOOP('',(#307,#308,#309,#310));
#215=EDGE_LOOP('',(#311));
#216=EDGE_LOOP('',(#312));
#217=EDGE_LOOP('',(#313));
#218=EDGE_LOOP('',(#314));
#219=EDGE_LOOP('',(#315));
#220=EDGE_LOOP('',(#316));
#221=EDGE_LOOP('',(#317,#318,#319));
#222=ORIENTED_EDGE('',*,*,#355,.T.);
#223=ORIENTED_EDGE('',*,*,#356,.T.);
#224=ORIENTED_EDGE('',*,*,#357,.T.);
#225=ORIENTED_EDGE('',*,*,#358,.F.);
#226=ORIENTED_EDGE('',*,*,#359,.T.);
#227=ORIENTED_EDGE('',*,*,#360,.T.);
#228=ORIENTED_EDGE('',*,*,#361,.F.);
#229=ORIENTED_EDGE('',*,*,#358,.T.);
#230=ORIENTED_EDGE('',*,*,#362,.T.);
#231=ORIENTED_EDGE('',*,*,#363,.T.);
#232=ORIENTED_EDGE('',*,*,#364,.F.);
#233=ORIENTED_EDGE('',*,*,#365,.F.);
#234=ORIENTED_EDGE('',*,*,#366,.F.);
#235=ORIENTED_EDGE('',*,*,#367,.T.);
#236=ORIENTED_EDGE('',*,*,#368,.T.);
#237=ORIENTED_EDGE('',*,*,#369,.T.);
#238=ORIENTED_EDGE('',*,*,#370,.F.);
#239=ORIENTED_EDGE('',*,*,#360,.F.);
#240=ORIENTED_EDGE('',*,*,#371,.T.);
#241=ORIENTED_EDGE('',*,*,#372,.T.);
#242=ORIENTED_EDGE('',*,*,#373,.F.);
#243=ORIENTED_EDGE('',*,*,#374,.T.);
#244=ORIENTED_EDGE('',*,*,#375,.F.);
#245=ORIENTED_EDGE('',*,*,#356,.F.);
#246=ORIENTED_EDGE('',*,*,#370,.T.);
#247=ORIENTED_EDGE('',*,*,#376,.F.);
#248=ORIENTED_EDGE('',*,*,#377,.F.);
#249=ORIENTED_EDGE('',*,*,#378,.T.);
#250=ORIENTED_EDGE('',*,*,#379,.T.);
#251=ORIENTED_EDGE('',*,*,#380,.T.);
#252=ORIENTED_EDGE('',*,*,#381,.F.);
#253=ORIENTED_EDGE('',*,*,#382,.T.);
#254=ORIENTED_EDGE('',*,*,#371,.F.);
#255=ORIENTED_EDGE('',*,*,#359,.F.);
#256=ORIENTED_EDGE('',*,*,#383,.F.);
#257=ORIENTED_EDGE('',*,*,#381,.T.);
#258=ORIENTED_EDGE('',*,*,#384,.F.);
#259=ORIENTED_EDGE('',*,*,#369,.F.);
#260=ORIENTED_EDGE('',*,*,#382,.F.);
#261=ORIENTED_EDGE('',*,*,#380,.F.);
#262=ORIENTED_EDGE('',*,*,#385,.T.);
#263=ORIENTED_EDGE('',*,*,#386,.T.);
#264=ORIENTED_EDGE('',*,*,#372,.F.);
#265=ORIENTED_EDGE('',*,*,#387,.T.);
#266=ORIENTED_EDGE('',*,*,#388,.F.);
#267=ORIENTED_EDGE('',*,*,#367,.F.);
#268=ORIENTED_EDGE('',*,*,#389,.T.);
#269=ORIENTED_EDGE('',*,*,#377,.T.);
#270=ORIENTED_EDGE('',*,*,#390,.F.);
#271=ORIENTED_EDGE('',*,*,#376,.T.);
#272=ORIENTED_EDGE('',*,*,#383,.T.);
#273=ORIENTED_EDGE('',*,*,#368,.F.);
#274=ORIENTED_EDGE('',*,*,#390,.T.);
#275=ORIENTED_EDGE('',*,*,#391,.T.);
#276=ORIENTED_EDGE('',*,*,#388,.T.);
#277=ORIENTED_EDGE('',*,*,#391,.F.);
#278=ORIENTED_EDGE('',*,*,#361,.T.);
#279=ORIENTED_EDGE('',*,*,#392,.T.);
#280=ORIENTED_EDGE('',*,*,#393,.T.);
#281=ORIENTED_EDGE('',*,*,#393,.F.);
#282=ORIENTED_EDGE('',*,*,#355,.F.);
#283=ORIENTED_EDGE('',*,*,#384,.T.);
#284=ORIENTED_EDGE('',*,*,#392,.F.);
#285=ORIENTED_EDGE('',*,*,#375,.T.);
#286=ORIENTED_EDGE('',*,*,#394,.F.);
#287=ORIENTED_EDGE('',*,*,#363,.F.);
#288=ORIENTED_EDGE('',*,*,#395,.T.);
#289=ORIENTED_EDGE('',*,*,#357,.F.);
#290=ORIENTED_EDGE('',*,*,#395,.F.);
#291=ORIENTED_EDGE('',*,*,#362,.F.);
#292=ORIENTED_EDGE('',*,*,#396,.F.);
#293=ORIENTED_EDGE('',*,*,#397,.F.);
#294=ORIENTED_EDGE('',*,*,#374,.F.);
#295=ORIENTED_EDGE('',*,*,#398,.F.);
#296=ORIENTED_EDGE('',*,*,#399,.F.);
#297=ORIENTED_EDGE('',*,*,#365,.T.);
#298=ORIENTED_EDGE('',*,*,#386,.F.);
#299=ORIENTED_EDGE('',*,*,#400,.F.);
#300=ORIENTED_EDGE('',*,*,#398,.T.);
#301=ORIENTED_EDGE('',*,*,#373,.T.);
#302=ORIENTED_EDGE('',*,*,#385,.F.);
#303=ORIENTED_EDGE('',*,*,#379,.F.);
#304=ORIENTED_EDGE('',*,*,#401,.T.);
#305=ORIENTED_EDGE('',*,*,#399,.T.);
#306=ORIENTED_EDGE('',*,*,#400,.T.);
#307=ORIENTED_EDGE('',*,*,#378,.F.);
#308=ORIENTED_EDGE('',*,*,#389,.F.);
#309=ORIENTED_EDGE('',*,*,#366,.T.);
#310=ORIENTED_EDGE('',*,*,#401,.F.);
#311=ORIENTED_EDGE('',*,*,#402,.F.);
#312=ORIENTED_EDGE('',*,*,#403,.F.);
#313=ORIENTED_EDGE('',*,*,#403,.T.);
#314=ORIENTED_EDGE('',*,*,#396,.T.);
#315=ORIENTED_EDGE('',*,*,#387,.F.);
#316=ORIENTED_EDGE('',*,*,#402,.T.);
#317=ORIENTED_EDGE('',*,*,#397,.T.);
#318=ORIENTED_EDGE('',*,*,#364,.T.);
#319=ORIENTED_EDGE('',*,*,#394,.T.);
#320=VERTEX_POINT('',#581);
#321=VERTEX_POINT('',#583);
#322=VERTEX_POINT('',#584);
#323=VERTEX_POINT('',#586);
#324=VERTEX_POINT('',#588);
#325=VERTEX_POINT('',#590);
#326=VERTEX_POINT('',#594);
#327=VERTEX_POINT('',#596);
#328=VERTEX_POINT('',#598);
#329=VERTEX_POINT('',#600);
#330=VERTEX_POINT('',#602);
#331=VERTEX_POINT('',#604);
#332=VERTEX_POINT('',#606);
#333=VERTEX_POINT('',#610);
#334=VERTEX_POINT('',#611);
#335=VERTEX_POINT('',#616);
#336=VERTEX_POINT('',#618);
#337=VERTEX_POINT('',#620);
#338=VERTEX_POINT('',#624);
#339=VERTEX_POINT('',#625);
#340=VERTEX_POINT('',#627);
#341=VERTEX_POINT('',#629);
#342=VERTEX_POINT('',#631);
#343=VERTEX_POINT('',#633);
#344=VERTEX_POINT('',#640);
#345=VERTEX_POINT('',#642);
#346=VERTEX_POINT('',#645);
#347=VERTEX_POINT('',#648);
#348=VERTEX_POINT('',#654);
#349=VERTEX_POINT('',#658);
#350=VERTEX_POINT('',#660);
#351=VERTEX_POINT('',#669);
#352=VERTEX_POINT('',#672);
#353=VERTEX_POINT('',#681);
#354=VERTEX_POINT('',#683);
#355=EDGE_CURVE('',#320,#320,#404,.T.);
#356=EDGE_CURVE('',#321,#322,#93,.T.);
#357=EDGE_CURVE('',#322,#323,#94,.T.);
#358=EDGE_CURVE('',#324,#323,#95,.T.);
#359=EDGE_CURVE('',#324,#325,#96,.T.);
#360=EDGE_CURVE('',#325,#321,#405,.T.);
#361=EDGE_CURVE('',#326,#326,#406,.T.);
#362=EDGE_CURVE('',#323,#327,#97,.T.);
#363=EDGE_CURVE('',#327,#328,#98,.T.);
#364=EDGE_CURVE('',#329,#328,#99,.T.);
#365=EDGE_CURVE('',#330,#329,#100,.T.);
#366=EDGE_CURVE('',#331,#330,#101,.T.);
#367=EDGE_CURVE('',#331,#332,#407,.T.);
#368=EDGE_CURVE('',#332,#324,#102,.T.);
#369=EDGE_CURVE('',#333,#334,#408,.T.);
#370=EDGE_CURVE('',#321,#334,#103,.T.);
#371=EDGE_CURVE('',#325,#333,#104,.T.);
#372=EDGE_CURVE('',#334,#335,#105,.T.);
#373=EDGE_CURVE('',#336,#335,#106,.T.);
#374=EDGE_CURVE('',#336,#337,#107,.T.);
#375=EDGE_CURVE('',#322,#337,#108,.T.);
#376=EDGE_CURVE('',#338,#339,#109,.T.);
#377=EDGE_CURVE('',#340,#338,#409,.T.);
#378=EDGE_CURVE('',#340,#341,#110,.T.);
#379=EDGE_CURVE('',#341,#342,#111,.T.);
#380=EDGE_CURVE('',#342,#343,#112,.T.);
#381=EDGE_CURVE('',#339,#343,#113,.T.);
#382=EDGE_CURVE('',#343,#333,#114,.T.);
#383=EDGE_CURVE('',#339,#324,#115,.T.);
#384=EDGE_CURVE('',#344,#344,#410,.T.);
#385=EDGE_CURVE('',#342,#345,#116,.T.);
#386=EDGE_CURVE('',#345,#335,#411,.T.);
#387=EDGE_CURVE('',#346,#346,#412,.T.);
#388=EDGE_CURVE('',#347,#347,#413,.T.);
#389=EDGE_CURVE('',#331,#340,#117,.T.);
#390=EDGE_CURVE('',#332,#338,#118,.T.);
#391=EDGE_CURVE('',#348,#348,#414,.T.);
#392=EDGE_CURVE('',#349,#349,#415,.T.);
#393=EDGE_CURVE('',#350,#350,#416,.T.);
#394=EDGE_CURVE('',#328,#337,#119,.T.);
#395=EDGE_CURVE('',#327,#322,#120,.T.);
#396=EDGE_CURVE('',#351,#351,#417,.T.);
#397=EDGE_CURVE('',#337,#329,#121,.T.);
#398=EDGE_CURVE('',#352,#336,#418,.T.);
#399=EDGE_CURVE('',#330,#352,#122,.T.);
#400=EDGE_CURVE('',#352,#345,#123,.T.);
#401=EDGE_CURVE('',#341,#330,#124,.T.);
#402=EDGE_CURVE('',#353,#353,#419,.T.);
#403=EDGE_CURVE('',#354,#354,#420,.T.);
#404=CIRCLE('',#422,10.);
#405=CIRCLE('',#423,14.);
#406=CIRCLE('',#425,11.);
#407=CIRCLE('',#426,19.);
#408=CIRCLE('',#428,14.);
#409=CIRCLE('',#431,19.);
#410=CIRCLE('',#434,5.);
#411=CIRCLE('',#435,14.);
#412=CIRCLE('',#436,5.);
#413=CIRCLE('',#438,19.);
#414=CIRCLE('',#441,11.);
#415=CIRCLE('',#444,5.);
#416=CIRCLE('',#445,10.);
#417=CIRCLE('',#451,10.);
#418=CIRCLE('',#452,14.);
#419=CIRCLE('',#457,5.);
#420=CIRCLE('',#458,10.);
#421=AXIS2_PLACEMENT_3D('',#579,#463,#464);
#422=AXIS2_PLACEMENT_3D('',#580,#465,#466);
#423=AXIS2_PLACEMENT_3D('',#591,#471,#472);
#424=AXIS2_PLACEMENT_3D('',#592,#473,#474);
#425=AXIS2_PLACEMENT_3D('',#593,#475,#476);
#426=AXIS2_PLACEMENT_3D('',#605,#482,#483);
#427=AXIS2_PLACEMENT_3D('',#608,#485,#486);
#428=AXIS2_PLACEMENT_3D('',#609,#487,#488);
#429=AXIS2_PLACEMENT_3D('',#614,#491,#492);
#430=AXIS2_PLACEMENT_3D('',#622,#497,#498);
#431=AXIS2_PLACEMENT_3D('',#626,#500,#501);
#432=AXIS2_PLACEMENT_3D('',#635,#506,#507);
#433=AXIS2_PLACEMENT_3D('',#638,#510,#511);
#434=AXIS2_PLACEMENT_3D('',#639,#512,#513);
#435=AXIS2_PLACEMENT_3D('',#643,#515,#516);
#436=AXIS2_PLACEMENT_3D('',#644,#517,#518);
#437=AXIS2_PLACEMENT_3D('',#646,#519,#520);
#438=AXIS2_PLACEMENT_3D('',#647,#521,#522);
#439=AXIS2_PLACEMENT_3D('',#651,#525,#526);
#440=AXIS2_PLACEMENT_3D('',#652,#527,#528);
#441=AXIS2_PLACEMENT_3D('',#653,#529,#530);
#442=AXIS2_PLACEMENT_3D('',#655,#531,#532);
#443=AXIS2_PLACEMENT_3D('',#656,#533,#534);
#444=AXIS2_PLACEMENT_3D('',#657,#535,#536);
#445=AXIS2_PLACEMENT_3D('',#659,#537,#538);
#446=AXIS2_PLACEMENT_3D('',#661,#539,#540);
#447=AXIS2_PLACEMENT_3D('',#662,#541,#542);
#448=AXIS2_PLACEMENT_3D('',#663,#543,#544);
#449=AXIS2_PLACEMENT_3D('',#666,#547,#548);
#450=AXIS2_PLACEMENT_3D('',#667,#549,#550);
#451=AXIS2_PLACEMENT_3D('',#668,#551,#552);
#452=AXIS2_PLACEMENT_3D('',#671,#554,#555);
#453=AXIS2_PLACEMENT_3D('',#674,#557,#558);
#454=AXIS2_PLACEMENT_3D('',#676,#560,#561);
#455=AXIS2_PLACEMENT_3D('',#678,#563,#564);
#456=AXIS2_PLACEMENT_3D('',#679,#565,#566);
#457=AXIS2_PLACEMENT_3D('',#680,#567,#568);
#458=AXIS2_PLACEMENT_3D('',#682,#569,#570);
#459=AXIS2_PLACEMENT_3D('',#684,#571,#572);
#460=AXIS2_PLACEMENT_3D('',#685,#573,#574);
#461=AXIS2_PLACEMENT_3D('',#686,#575,#576);
#462=AXIS2_PLACEMENT_3D('',#687,#577,#578);
#463=DIRECTION('',(0.,0.,1.));
#464=DIRECTION('',(1.,0.,0.));
#465=DIRECTION('',(0.,0.,-1.));
#466=DIRECTION('',(-1.,0.,0.));
#467=DIRECTION('',(1.,0.,0.));
#468=DIRECTION('',(0.,1.,0.));
#469=DIRECTION('',(1.,0.,2.32706807752986E-15));
#470=DIRECTION('',(-4.16333634234438E-15,-1.,0.));
#471=DIRECTION('',(0.,0.,1.));
#472=DIRECTION('',(1.,0.,0.));
#473=DIRECTION('',(0.,0.,1.));
#474=DIRECTION('',(1.,0.,0.));
#475=DIRECTION('',(0.,-1.,0.));
#476=DIRECTION('',(0.,0.,-1.));
#477=DIRECTION('',(0.,1.15648231731787E-15,1.));
#478=DIRECTION('',(1.,0.,0.));
#479=DIRECTION('',(1.12987890070718E-30,1.15648231731787E-15,1.));
#480=DIRECTION('',(-1.,1.01544788837667E-15,2.32706807752986E-15));
#481=DIRECTION('',(0.390511010966112,-4.0342629057663E-16,-0.920598256740814));
#482=DIRECTION('',(0.,-1.,0.));
#483=DIRECTION('',(-1.,0.,3.65204942310907E-16));
#484=DIRECTION('',(-0.390511010966112,0.,-0.920598256740814));
#485=DIRECTION('',(0.,-1.,0.));
#486=DIRECTION('',(0.,0.,-1.));
#487=DIRECTION('',(0.,0.,1.));
#488=DIRECTION('',(1.,0.,0.));
#489=DIRECTION('',(0.,0.,-1.));
#490=DIRECTION('',(0.,0.,-1.));
#491=DIRECTION('',(0.,0.,-1.));
#492=DIRECTION('',(-1.,0.,0.));
#493=DIRECTION('',(1.,0.,0.));
#494=DIRECTION('',(0.,0.,-1.));
#495=DIRECTION('',(-1.,1.02798428206033E-15,0.));
#496=DIRECTION('',(1.,0.,0.));
#497=DIRECTION('',(0.,1.,0.));
#498=DIRECTION('',(0.,0.,1.));
#499=DIRECTION('',(-0.390511010966112,0.,-0.920598256740814));
#500=DIRECTION('',(1.10006854574139E-15,1.,0.));
#501=DIRECTION('',(1.,-1.09561482693272E-15,0.));
#502=DIRECTION('',(0.390511010966112,-4.0342629057663E-16,-0.920598256740814));
#503=DIRECTION('',(0.,0.,-1.));
#504=DIRECTION('',(-1.,1.10006854574139E-15,0.));
#505=DIRECTION('',(0.,0.,-1.));
#506=DIRECTION('',(-1.10006854574139E-15,-1.,0.));
#507=DIRECTION('',(1.,-1.0998146837693E-15,0.));
#508=DIRECTION('',(-1.82602471155453E-15,-1.,0.));
#509=DIRECTION('',(-4.16333634234438E-15,-1.,0.));
#510=DIRECTION('',(1.,-1.82602471155453E-15,0.));
#511=DIRECTION('',(1.8249290967276E-15,1.,0.));
#512=DIRECTION('',(0.,0.,-1.));
#513=DIRECTION('',(1.,0.,0.));
#514=DIRECTION('',(7.30409884621814E-16,-1.,0.));
#515=DIRECTION('',(0.,0.,-1.));
#516=DIRECTION('',(-1.,0.,0.));
#517=DIRECTION('',(0.,0.,1.));
#518=DIRECTION('',(-1.,0.,0.));
#519=DIRECTION('',(0.,0.,1.));
#520=DIRECTION('',(1.,0.,0.));
#521=DIRECTION('',(0.,1.,0.));
#522=DIRECTION('',(1.,0.,0.));
#523=DIRECTION('',(1.01064309961486E-15,1.,0.));
#524=DIRECTION('',(0.,1.,0.));
#525=DIRECTION('',(0.,1.,0.));
#526=DIRECTION('',(0.,0.,1.));
#527=DIRECTION('',(0.920598256740814,0.,-0.390511010966112));
#528=DIRECTION('',(-0.390511010966112,0.,-0.920598256740814));
#529=DIRECTION('',(0.,-1.,0.));
#530=DIRECTION('',(0.,0.,-1.));
#531=DIRECTION('',(0.,-1.,0.));
#532=DIRECTION('',(0.,0.,-1.));
#533=DIRECTION('',(0.,1.,0.));
#534=DIRECTION('',(0.,0.,1.));
#535=DIRECTION('',(0.,0.,-1.));
#536=DIRECTION('',(-0.999999999999999,0.,0.));
#537=DIRECTION('',(0.,0.,1.));
#538=DIRECTION('',(-1.,0.,0.));
#539=DIRECTION('',(0.,0.,-1.));
#540=DIRECTION('',(-1.,0.,0.));
#541=DIRECTION('',(0.,0.,-1.));
#542=DIRECTION('',(-1.,0.,0.));
#543=DIRECTION('',(0.,0.,-1.));
#544=DIRECTION('',(-0.999999999999999,0.,0.));
#545=DIRECTION('',(-6.89580231467631E-16,-0.682318250360012,-0.731055268242868));
#546=DIRECTION('',(0.,-0.682318250360012,-0.731055268242868));
#547=DIRECTION('',(0.,-0.731055268242868,0.682318250360012));
#548=DIRECTION('',(0.,-0.682318250360012,-0.731055268242868));
#549=DIRECTION('',(1.,0.,0.));
#550=DIRECTION('',(0.,0.,-1.));
#551=DIRECTION('',(0.,0.,1.));
#552=DIRECTION('',(-1.,0.,0.));
#553=DIRECTION('',(1.01064309961486E-15,1.,0.));
#554=DIRECTION('',(0.,0.,-1.));
#555=DIRECTION('',(-1.,0.,0.));
#556=DIRECTION('',(2.77555756156292E-15,-1.,0.));
#557=DIRECTION('',(0.,0.,-1.));
#558=DIRECTION('',(-1.,0.,0.));
#559=DIRECTION('',(0.,0.,-1.));
#560=DIRECTION('',(0.,0.,-1.));
#561=DIRECTION('',(-1.,0.,0.));
#562=DIRECTION('',(2.77555756156292E-15,-1.,0.));
#563=DIRECTION('',(1.,7.30409884621814E-16,0.));
#564=DIRECTION('',(-7.28583859910259E-16,1.,0.));
#565=DIRECTION('',(0.920598256740814,-9.30396275692573E-16,0.390511010966112));
#566=DIRECTION('',(0.390511010966112,0.,-0.920598256740814));
#567=DIRECTION('',(0.,0.,1.));
#568=DIRECTION('',(-1.,0.,0.));
#569=DIRECTION('',(0.,0.,-1.));
#570=DIRECTION('',(-1.,0.,0.));
#571=DIRECTION('',(0.,0.,-1.));
#572=DIRECTION('',(-1.,0.,0.));
#573=DIRECTION('',(0.,0.,-1.));
#574=DIRECTION('',(-1.,0.,0.));
#575=DIRECTION('',(0.,0.,-1.));
#576=DIRECTION('',(-1.,0.,0.));
#577=DIRECTION('',(1.,-1.01064309961486E-15,3.89119731167319E-32));
#578=DIRECTION('',(1.01047642475649E-15,1.,0.));
#579=CARTESIAN_POINT('',(0.,0.,0.));
#580=CARTESIAN_POINT('',(-27.0000000000001,-5.,10.));
#581=CARTESIAN_POINT('',(-37.0000000000001,-5.,10.));
#582=CARTESIAN_POINT('',(-27.0000000000001,-19.,10.));
#583=CARTESIAN_POINT('',(-27.0000000000001,-19.,10.));
#584=CARTESIAN_POINT('',(-5.00000000000001,-19.,10.));
#585=CARTESIAN_POINT('',(-5.00000000000001,-19.,10.));
#586=CARTESIAN_POINT('',(-5.00000000000001,9.,10.));
#587=CARTESIAN_POINT('',(-40.9999999999999,9.,10.0000000000003));
#588=CARTESIAN_POINT('',(-41.,9.,10.));
#589=CARTESIAN_POINT('',(-41.,0.,10.));
#590=CARTESIAN_POINT('',(-41.0000000000001,-4.99999999999995,10.));
#591=CARTESIAN_POINT('',(-27.0000000000001,-5.,10.));
#592=CARTESIAN_POINT('',(-27.0000000000001,-5.,10.));
#593=CARTESIAN_POINT('',(9.60110944634118E-15,9.,58.));
#594=CARTESIAN_POINT('',(9.60110944634118E-15,9.,47.));
#595=CARTESIAN_POINT('',(-5.00000000000001,9.,10.));
#596=CARTESIAN_POINT('',(-5.00000000000001,9.00000000000004,40.));
#597=CARTESIAN_POINT('',(-5.00000000000001,9.00000000000004,40.));
#598=CARTESIAN_POINT('',(5.00000000000002,9.00000000000003,40.));
#599=CARTESIAN_POINT('',(5.00000000000002,9.,10.));
#600=CARTESIAN_POINT('',(5.00000000000002,8.99999999999999,10.0000000000004));
#601=CARTESIAN_POINT('',(40.9999999999999,8.99999999999996,10.0000000000003));
#602=CARTESIAN_POINT('',(41.,8.99999999999996,10.));
#603=CARTESIAN_POINT('',(17.4913668780755,8.99999999999998,65.4197092083561));
#604=CARTESIAN_POINT('',(17.4913668780965,9.,65.4197092083066));
#605=CARTESIAN_POINT('',(6.93889390390723E-15,9.,58.));
#606=CARTESIAN_POINT('',(-17.4913668780965,9.,65.4197092083066));
#607=CARTESIAN_POINT('',(-17.4913668780755,9.,65.4197092083561));
#608=CARTESIAN_POINT('',(6.93889390390723E-15,9.,58.));
#609=CARTESIAN_POINT('',(-27.0000000000001,-5.,0.));
#610=CARTESIAN_POINT('',(-41.0000000000001,-4.99999999999995,0.));
#611=CARTESIAN_POINT('',(-27.0000000000001,-19.,0.));
#612=CARTESIAN_POINT('',(-27.0000000000001,-19.,10.));
#613=CARTESIAN_POINT('',(-41.0000000000001,-4.99999999999995,10.));
#614=CARTESIAN_POINT('',(-27.0000000000001,-5.,10.));
#615=CARTESIAN_POINT('',(-27.0000000000001,-19.,0.));
#616=CARTESIAN_POINT('',(27.0000000000001,-19.,0.));
#617=CARTESIAN_POINT('',(27.0000000000001,-19.,10.));
#618=CARTESIAN_POINT('',(27.0000000000001,-19.,10.));
#619=CARTESIAN_POINT('',(27.,-19.,10.));
#620=CARTESIAN_POINT('',(5.,-19.,10.));
#621=CARTESIAN_POINT('',(-5.00000000000001,-19.,10.));
#622=CARTESIAN_POINT('',(-27.0000000000001,-19.,10.));
#623=CARTESIAN_POINT('',(-17.4913668780755,19.,65.4197092083561));
#624=CARTESIAN_POINT('',(-17.4913668780755,19.,65.4197092083561));
#625=CARTESIAN_POINT('',(-41.,19.,10.));
#626=CARTESIAN_POINT('',(-9.0205620750794E-14,19.,58.));
#627=CARTESIAN_POINT('',(17.4913668780965,19.,65.4197092083066));
#628=CARTESIAN_POINT('',(17.4913668780755,19.,65.4197092083561));
#629=CARTESIAN_POINT('',(41.,19.,10.));
#630=CARTESIAN_POINT('',(41.,19.,10.));
#631=CARTESIAN_POINT('',(41.,19.,0.));
#632=CARTESIAN_POINT('',(0.,19.,0.));
#633=CARTESIAN_POINT('',(-41.,19.,0.));
#634=CARTESIAN_POINT('',(-41.,19.,10.));
#635=CARTESIAN_POINT('',(0.,19.,10.));
#636=CARTESIAN_POINT('',(-41.,19.,0.));
#637=CARTESIAN_POINT('',(-41.,0.,10.));
#638=CARTESIAN_POINT('',(-41.,19.,10.));
#639=CARTESIAN_POINT('',(-27.0000000000001,-5.,0.));
#640=CARTESIAN_POINT('',(-22.0000000000001,-5.,0.));
#641=CARTESIAN_POINT('',(41.,19.,0.));
#642=CARTESIAN_POINT('',(41.,-4.99999999999999,0.));
#643=CARTESIAN_POINT('',(27.0000000000001,-5.00000000000003,0.));
#644=CARTESIAN_POINT('',(27.0000000000001,-5.,0.));
#645=CARTESIAN_POINT('',(22.0000000000001,-5.,0.));
#646=CARTESIAN_POINT('',(-27.0000000000001,-5.,0.));
#647=CARTESIAN_POINT('',(-9.0205620750794E-14,21.,58.));
#648=CARTESIAN_POINT('',(18.9999999999999,21.,58.));
#649=CARTESIAN_POINT('',(17.4913668780965,9.,65.4197092083066));
#650=CARTESIAN_POINT('',(-17.4913668780965,9.,65.4197092083066));
#651=CARTESIAN_POINT('',(6.93889390390723E-15,9.,58.));
#652=CARTESIAN_POINT('',(-17.4913668780755,9.,65.4197092083561));
#653=CARTESIAN_POINT('',(9.60110944634118E-15,21.,58.));
#654=CARTESIAN_POINT('',(9.60110944634118E-15,21.,47.));
#655=CARTESIAN_POINT('',(-9.0205620750794E-14,21.,58.));
#656=CARTESIAN_POINT('',(9.60110944634118E-15,19.,58.));
#657=CARTESIAN_POINT('',(-27.0000000000001,-5.,8.));
#658=CARTESIAN_POINT('',(-32.0000000000001,-5.,8.));
#659=CARTESIAN_POINT('',(-27.0000000000001,-5.,8.));
#660=CARTESIAN_POINT('',(-37.0000000000001,-5.,8.));
#661=CARTESIAN_POINT('',(-27.0000000000001,-5.,8.));
#662=CARTESIAN_POINT('',(-27.0000000000001,-5.,10.));
#663=CARTESIAN_POINT('',(-27.0000000000001,-5.,10.));
#664=CARTESIAN_POINT('',(5.00000000000002,9.00000000000003,40.));
#665=CARTESIAN_POINT('',(-5.00000000000001,9.00000000000004,40.));
#666=CARTESIAN_POINT('',(-5.00000000000001,9.00000000000004,40.));
#667=CARTESIAN_POINT('',(-5.00000000000001,0.,0.));
#668=CARTESIAN_POINT('',(27.0000000000001,-5.,10.));
#669=CARTESIAN_POINT('',(17.0000000000001,-5.,10.));
#670=CARTESIAN_POINT('',(4.99999999999999,-19.,10.));
#671=CARTESIAN_POINT('',(27.0000000000001,-5.00000000000003,10.));
#672=CARTESIAN_POINT('',(41.,-4.99999999999999,10.));
#673=CARTESIAN_POINT('',(41.,-4.17443857259059E-14,10.));
#674=CARTESIAN_POINT('',(27.0000000000001,-5.00000000000003,10.));
#675=CARTESIAN_POINT('',(41.,-4.99999999999999,10.));
#676=CARTESIAN_POINT('',(27.0000000000001,-5.00000000000003,10.));
#677=CARTESIAN_POINT('',(41.,-4.17443857259059E-14,10.));
#678=CARTESIAN_POINT('',(41.,19.,10.));
#679=CARTESIAN_POINT('',(17.4913668780755,8.99999999999998,65.4197092083561));
#680=CARTESIAN_POINT('',(27.0000000000001,-5.,8.));
#681=CARTESIAN_POINT('',(22.0000000000001,-5.,8.));
#682=CARTESIAN_POINT('',(27.0000000000001,-5.,8.));
#683=CARTESIAN_POINT('',(17.0000000000001,-5.,8.));
#684=CARTESIAN_POINT('',(27.0000000000001,-5.,8.));
#685=CARTESIAN_POINT('',(27.0000000000001,-5.,10.));
#686=CARTESIAN_POINT('',(27.0000000000001,-5.,10.));
#687=CARTESIAN_POINT('',(5.00000000000001,-5.05321549807431E-15,3.73598112666829E-46));
#688=MECHANICAL_DESIGN_GEOMETRIC_PRESENTATION_REPRESENTATION('',(#24),#689);
#689=(
GEOMETRIC_REPRESENTATION_CONTEXT(3)
GLOBAL_UNCERTAINTY_ASSIGNED_CONTEXT((#690))
GLOBAL_UNIT_ASSIGNED_CONTEXT((#696,#692,#691))
REPRESENTATION_CONTEXT('Pieza','TOP_LEVEL_ASSEMBLY_PART')
);
#690=UNCERTAINTY_MEASURE_WITH_UNIT(LENGTH_MEASURE(2.E-5),#696,
'DISTANCE_ACCURACY_VALUE','Maximum Tolerance applied to model');
#691=(
NAMED_UNIT(*)
SI_UNIT($,.STERADIAN.)
SOLID_ANGLE_UNIT()
);
#692=(
CONVERSION_BASED_UNIT('DEGREE',#694)
NAMED_UNIT(#693)
PLANE_ANGLE_UNIT()
);
#693=DIMENSIONAL_EXPONENTS(0.,0.,0.,0.,0.,0.,0.);
#694=PLANE_ANGLE_MEASURE_WITH_UNIT(PLANE_ANGLE_MEASURE(0.0174532925),#695);
#695=(
NAMED_UNIT(*)
PLANE_ANGLE_UNIT()
SI_UNIT($,.RADIAN.)
);
#696=(
LENGTH_UNIT()
NAMED_UNIT(*)
SI_UNIT(.MILLI.,.METRE.)
);
ENDSEC;
END-ISO-10303-21;
